<svg width="140" height="178" viewBox="0 0 140 178" fill="none" xmlns="http://www.w3.org/2000/svg">
<path d="M138.867 69.9333C138.867 120.067 69.9333 176.467 69.9333 176.467C69.9333 176.467 1 120.067 1 69.9333C1 31.7067 31.7067 1 69.9333 1C108.16 1 138.867 31.7067 138.867 69.9333Z" fill="#FF5093" stroke="#FF5093" stroke-width="2" stroke-miterlimit="10" stroke-linecap="round" stroke-linejoin="round"/>
<path d="M69.8667 108.733C94.0936 108.733 113.733 89.0936 113.733 64.8667C113.733 40.6398 94.0936 21 69.8667 21C45.6398 21 26 40.6398 26 64.8667C26 89.0936 45.6398 108.733 69.8667 108.733Z" fill="#B7257F" stroke="#B7257F" stroke-width="2" stroke-miterlimit="10" stroke-linecap="round" stroke-linejoin="round"/>
<path d="M69.8 83.6C80.183 83.6 88.6 75.183 88.6 64.8C88.6 54.417 80.183 46 69.8 46C59.417 46 51 54.417 51 64.8C51 75.183 59.417 83.6 69.8 83.6Z" fill="#E3FAFF" stroke="#E3FAFF" stroke-width="2" stroke-miterlimit="10" stroke-linecap="round" stroke-linejoin="round"/>
</svg>
