<svg width="150" height="188" viewBox="0 0 150 188" fill="none" xmlns="http://www.w3.org/2000/svg">
<g filter="url(#filter0_d_211_230)">
<path d="M143.867 70.9333C143.867 121.067 74.9333 177.467 74.9333 177.467C74.9333 177.467 6 121.067 6 70.9333C6 32.7067 36.7067 2 74.9333 2C113.16 2 143.867 32.7067 143.867 70.9333Z" fill="#FFEE50" stroke="#FFEE50" stroke-width="4" stroke-miterlimit="10" stroke-linecap="round" stroke-linejoin="round"/>
<path d="M74.8667 109.733C99.0936 109.733 118.733 90.0936 118.733 65.8667C118.733 41.6398 99.0936 22 74.8667 22C50.6398 22 31 41.6398 31 65.8667C31 90.0936 50.6398 109.733 74.8667 109.733Z" fill="#42B725" stroke="#42B725" stroke-width="4" stroke-miterlimit="10" stroke-linecap="round" stroke-linejoin="round"/>
<path d="M74.8 84.6C85.183 84.6 93.6 76.183 93.6 65.8C93.6 55.417 85.183 47 74.8 47C64.417 47 56 55.417 56 65.8C56 76.183 64.417 84.6 74.8 84.6Z" fill="#E3FAFF" stroke="#E3FAFF" stroke-width="4" stroke-miterlimit="10" stroke-linecap="round" stroke-linejoin="round"/>
</g>
<defs>
<filter id="filter0_d_211_230" x="0" y="0" width="149.867" height="187.467" filterUnits="userSpaceOnUse" color-interpolation-filters="sRGB">
<feFlood flood-opacity="0" result="BackgroundImageFix"/>
<feColorMatrix in="SourceAlpha" type="matrix" values="0 0 0 0 0 0 0 0 0 0 0 0 0 0 0 0 0 0 127 0" result="hardAlpha"/>
<feOffset dy="4"/>
<feGaussianBlur stdDeviation="2"/>
<feComposite in2="hardAlpha" operator="out"/>
<feColorMatrix type="matrix" values="0 0 0 0 0 0 0 0 0 0 0 0 0 0 0 0 0 0 0.25 0"/>
<feBlend mode="normal" in2="BackgroundImageFix" result="effect1_dropShadow_211_230"/>
<feBlend mode="normal" in="SourceGraphic" in2="effect1_dropShadow_211_230" result="shape"/>
</filter>
</defs>
</svg>
