<svg width="518" height="517" viewBox="0 0 518 517" fill="none" xmlns="http://www.w3.org/2000/svg">
<path d="M152.99 0C68.7719 0 0.240234 68.5317 0.240234 152.75V364.25C0.240234 448.468 68.7719 517 152.99 517H364.49C448.709 517 517.24 448.468 517.24 364.25V152.75C517.24 68.5317 448.709 0 364.49 0H152.99ZM152.99 23.5H364.49C436.006 23.5 493.74 81.2338 493.74 152.75V364.25C493.74 435.766 436.006 493.5 364.49 493.5H152.99C81.474 493.5 23.7402 435.766 23.7402 364.25V152.75C23.7402 81.2338 81.474 23.5 152.99 23.5ZM399.74 94C393.508 94 387.53 96.4759 383.123 100.883C378.716 105.29 376.24 111.267 376.24 117.5C376.24 123.733 378.716 129.71 383.123 134.117C387.53 138.524 393.508 141 399.74 141C405.973 141 411.95 138.524 416.357 134.117C420.764 129.71 423.24 123.733 423.24 117.5C423.24 111.267 420.764 105.29 416.357 100.883C411.95 96.4759 405.973 94 399.74 94ZM258.74 129.25C187.497 129.25 129.49 187.256 129.49 258.5C129.49 329.744 187.497 387.75 258.74 387.75C329.984 387.75 387.99 329.744 387.99 258.5C387.99 187.256 329.984 129.25 258.74 129.25ZM258.74 152.75C317.284 152.75 364.49 199.957 364.49 258.5C364.49 317.043 317.284 364.25 258.74 364.25C200.197 364.25 152.99 317.043 152.99 258.5C152.99 199.957 200.197 152.75 258.74 152.75Z" fill="#F2AEC7"/>
</svg>
