<svg width="8299" height="679" viewBox="0 0 8299 679" fill="none" xmlns="http://www.w3.org/2000/svg">
<ellipse cx="3906.16" cy="490.74" rx="175" ry="180" transform="rotate(-177.516 3906.16 490.74)" fill="#0E97E7"/>
<ellipse rx="101.5" ry="104" transform="matrix(0.99906 -0.0433435 -0.0433435 -0.99906 7001.45 370.952)" fill="#0E97E7"/>
<ellipse rx="96" ry="98.5" transform="matrix(0.99906 -0.0433435 -0.0433435 -0.99906 7358.63 355.523)" fill="#0E97E7"/>
<ellipse rx="85.5" ry="87.5" transform="matrix(0.99906 -0.0433435 -0.0433435 -0.99906 7680.81 340.851)" fill="#0E97E7"/>
<ellipse rx="76" ry="78" transform="matrix(0.99906 -0.0433435 -0.0433435 -0.99906 7968.01 333.284)" fill="#0E97E7"/>
<ellipse rx="73" ry="75" transform="matrix(0.99906 -0.0433435 -0.0433435 -0.99906 8222.61 312.194)" fill="#0E97E7"/>
<ellipse rx="175" ry="180" transform="matrix(0.99906 -0.0433435 -0.0433435 -0.99906 4392.64 490.74)" fill="#0E97E7"/>
<ellipse rx="164" ry="168" transform="matrix(0.99906 -0.0433435 -0.0433435 -0.99906 4899.16 468.765)" fill="#0E97E7"/>
<ellipse rx="123" ry="126" transform="matrix(0.99906 -0.0433435 -0.0433435 -0.99906 6639.48 391.484)" fill="#0E97E7"/>
<ellipse rx="129" ry="132.5" transform="matrix(0.99906 -0.0433435 -0.0433435 -0.99906 6234.71 405.585)" fill="#0E97E7"/>
<ellipse rx="138" ry="141.5" transform="matrix(0.99906 -0.0433435 -0.0433435 -0.99906 5822.3 428.522)" fill="#0E97E7"/>
<ellipse rx="151" ry="154.5" transform="matrix(0.99906 -0.0433435 -0.0433435 -0.99906 5381.73 448.33)" fill="#0E97E7"/>
<ellipse rx="101.5" ry="104" transform="matrix(1 0 0 -1 6817.5 300.156)" fill="white"/>
<ellipse rx="96" ry="98.5" transform="matrix(1 0 0 -1 7185 300.656)" fill="white"/>
<ellipse rx="85.5" ry="87.5" transform="matrix(1 0 0 -1 7523.5 300.656)" fill="white"/>
<ellipse rx="76" ry="78" transform="matrix(1 0 0 -1 7825 300.156)" fill="white"/>
<ellipse rx="73" ry="75" transform="matrix(1 0 0 -1 8104 297.156)" fill="white"/>
<ellipse rx="175" ry="180" transform="matrix(1 0 0 -1 4146 304.156)" fill="white"/>
<ellipse rx="164" ry="168" transform="matrix(1 0 0 -1 4653 304.156)" fill="white"/>
<ellipse rx="123" ry="126" transform="matrix(1 0 0 -1 6436 304.156)" fill="white"/>
<ellipse rx="129" ry="132.5" transform="matrix(1 0 0 -1 6030 300.656)" fill="white"/>
<ellipse rx="138" ry="141.5" transform="matrix(1 0 0 -1 5593 304.656)" fill="white"/>
<ellipse rx="151" ry="154.5" transform="matrix(1 0 0 -1 5136 304.656)" fill="white"/>
<ellipse rx="101.5" ry="104" transform="matrix(0.999672 0.0256015 0.0256015 -0.999672 7005.28 248.817)" fill="#F2AEC7"/>
<ellipse rx="96" ry="98.5" transform="matrix(0.999672 0.0256015 0.0256015 -0.999672 7357.64 258.725)" fill="#F2AEC7"/>
<ellipse rx="85.5" ry="87.5" transform="matrix(0.999672 0.0256015 0.0256015 -0.999672 7685.03 267.391)" fill="#F2AEC7"/>
<ellipse rx="76" ry="78" transform="matrix(0.999672 0.0256015 0.0256015 -0.999672 7969.45 273.611)" fill="#F2AEC7"/>
<ellipse rx="73" ry="75" transform="matrix(0.999672 0.0256015 0.0256015 -0.999672 8223.43 275.754)" fill="#F2AEC7"/>
<ellipse rx="175" ry="180" transform="matrix(0.999672 0.0256015 0.0256015 -0.999672 4389.55 184.421)" fill="#F2AEC7"/>
<ellipse rx="164" ry="168" transform="matrix(0.999672 0.0256015 0.0256015 -0.999672 4896.38 197.401)" fill="#F2AEC7"/>
<ellipse rx="123" ry="126" transform="matrix(0.999672 0.0256015 0.0256015 -0.999672 6635.8 243.049)" fill="#F2AEC7"/>
<ellipse rx="129" ry="132.5" transform="matrix(0.999672 0.0256015 0.0256015 -0.999672 6238.02 229.156)" fill="#F2AEC7"/>
<ellipse rx="138" ry="141.5" transform="matrix(0.999672 0.0256015 0.0256015 -0.999672 5828.06 221.967)" fill="#F2AEC7"/>
<ellipse rx="151" ry="154.5" transform="matrix(0.999672 0.0256015 0.0256015 -0.999672 5379.21 210.267)" fill="#F2AEC7"/>
<ellipse cx="1297.34" cy="370.952" rx="101.5" ry="104" transform="rotate(-177.516 1297.34 370.952)" fill="#0E97E7"/>
<ellipse cx="940.168" cy="355.523" rx="96" ry="98.5" transform="rotate(-177.516 940.168 355.523)" fill="#0E97E7"/>
<ellipse cx="617.986" cy="340.851" rx="85.5" ry="87.5" transform="rotate(-177.516 617.986 340.851)" fill="#0E97E7"/>
<ellipse cx="330.79" cy="333.284" rx="76" ry="78" transform="rotate(-177.516 330.79 333.284)" fill="#0E97E7"/>
<ellipse cx="76.1826" cy="312.194" rx="73" ry="75" transform="rotate(-177.516 76.1826 312.194)" fill="#0E97E7"/>
<ellipse cx="3399.64" cy="468.765" rx="164" ry="168" transform="rotate(-177.516 3399.64 468.765)" fill="#0E97E7"/>
<ellipse cx="1659.31" cy="391.484" rx="123" ry="126" transform="rotate(-177.516 1659.31 391.484)" fill="#0E97E7"/>
<ellipse cx="2064.08" cy="405.585" rx="129" ry="132.5" transform="rotate(-177.516 2064.08 405.585)" fill="#0E97E7"/>
<ellipse cx="2476.5" cy="428.522" rx="138" ry="141.5" transform="rotate(-177.516 2476.5 428.522)" fill="#0E97E7"/>
<ellipse cx="2917.07" cy="448.33" rx="151" ry="154.5" transform="rotate(-177.516 2917.07 448.33)" fill="#0E97E7"/>
<ellipse cx="1481.3" cy="300.156" rx="101.5" ry="104" transform="rotate(-180 1481.3 300.156)" fill="white"/>
<ellipse cx="1113.8" cy="300.656" rx="96" ry="98.5" transform="rotate(-180 1113.8 300.656)" fill="white"/>
<ellipse cx="775.297" cy="300.656" rx="85.5" ry="87.5" transform="rotate(-180 775.297 300.656)" fill="white"/>
<ellipse cx="473.797" cy="300.156" rx="76" ry="78" transform="rotate(-180 473.797 300.156)" fill="white"/>
<ellipse cx="194.797" cy="297.156" rx="73" ry="75" transform="rotate(-180 194.797 297.156)" fill="white"/>
<ellipse cx="3645.8" cy="304.156" rx="164" ry="168" transform="rotate(-180 3645.8 304.156)" fill="white"/>
<ellipse cx="1862.8" cy="304.156" rx="123" ry="126" transform="rotate(-180 1862.8 304.156)" fill="white"/>
<ellipse cx="2268.8" cy="300.656" rx="129" ry="132.5" transform="rotate(-180 2268.8 300.656)" fill="white"/>
<ellipse cx="2705.8" cy="304.656" rx="138" ry="141.5" transform="rotate(-180 2705.8 304.656)" fill="white"/>
<ellipse cx="3162.8" cy="304.656" rx="151" ry="154.5" transform="rotate(-180 3162.8 304.656)" fill="white"/>
<ellipse cx="1293.52" cy="248.817" rx="101.5" ry="104" transform="rotate(178.533 1293.52 248.817)" fill="#F2AEC7"/>
<ellipse cx="941.152" cy="258.725" rx="96" ry="98.5" transform="rotate(178.533 941.152 258.725)" fill="#F2AEC7"/>
<ellipse cx="613.764" cy="267.392" rx="85.5" ry="87.5" transform="rotate(178.533 613.764 267.392)" fill="#F2AEC7"/>
<ellipse cx="329.348" cy="273.611" rx="76" ry="78" transform="rotate(178.533 329.348 273.611)" fill="#F2AEC7"/>
<ellipse cx="75.3636" cy="275.754" rx="73" ry="75" transform="rotate(178.533 75.3636 275.754)" fill="#F2AEC7"/>
<ellipse cx="3909.25" cy="184.421" rx="175" ry="180" transform="rotate(178.533 3909.25 184.421)" fill="#F2AEC7"/>
<ellipse cx="3402.41" cy="197.401" rx="164" ry="168" transform="rotate(178.533 3402.41 197.401)" fill="#F2AEC7"/>
<ellipse cx="1663" cy="243.049" rx="123" ry="126" transform="rotate(178.533 1663 243.049)" fill="#F2AEC7"/>
<ellipse cx="2060.78" cy="229.156" rx="129" ry="132.5" transform="rotate(178.533 2060.78 229.156)" fill="#F2AEC7"/>
<ellipse cx="2470.73" cy="221.967" rx="138" ry="141.5" transform="rotate(178.533 2470.73 221.967)" fill="#F2AEC7"/>
<ellipse cx="2919.58" cy="210.267" rx="151" ry="154.5" transform="rotate(178.533 2919.58 210.267)" fill="#F2AEC7"/>
</svg>
