<svg width="8299" height="679" viewBox="0 0 8299 679" fill="none" xmlns="http://www.w3.org/2000/svg">
<ellipse rx="175" ry="180" transform="matrix(-0.99906 0.0433435 0.0433435 0.99906 3906.16 187.416)" fill="#0E97E7"/>
<ellipse cx="7001.45" cy="307.204" rx="101.5" ry="104" transform="rotate(2.48418 7001.45 307.204)" fill="#0E97E7"/>
<ellipse cx="7358.63" cy="322.633" rx="96" ry="98.5" transform="rotate(2.48418 7358.63 322.633)" fill="#0E97E7"/>
<ellipse cx="7680.81" cy="337.305" rx="85.5" ry="87.5" transform="rotate(2.48418 7680.81 337.305)" fill="#0E97E7"/>
<ellipse cx="7968.01" cy="344.873" rx="76" ry="78" transform="rotate(2.48418 7968.01 344.873)" fill="#0E97E7"/>
<ellipse cx="8222.61" cy="365.963" rx="73" ry="75" transform="rotate(2.48418 8222.61 365.963)" fill="#0E97E7"/>
<ellipse cx="4392.64" cy="187.416" rx="175" ry="180" transform="rotate(2.48418 4392.64 187.416)" fill="#0E97E7"/>
<ellipse cx="4899.16" cy="209.391" rx="164" ry="168" transform="rotate(2.48418 4899.16 209.391)" fill="#0E97E7"/>
<ellipse cx="6639.48" cy="286.673" rx="123" ry="126" transform="rotate(2.48418 6639.48 286.673)" fill="#0E97E7"/>
<ellipse cx="6234.71" cy="272.572" rx="129" ry="132.5" transform="rotate(2.48418 6234.71 272.572)" fill="#0E97E7"/>
<ellipse cx="5822.3" cy="249.634" rx="138" ry="141.5" transform="rotate(2.48418 5822.3 249.634)" fill="#0E97E7"/>
<ellipse cx="5381.73" cy="229.826" rx="151" ry="154.5" transform="rotate(2.48418 5381.73 229.826)" fill="#0E97E7"/>
<ellipse cx="6817.5" cy="378" rx="101.5" ry="104" fill="white"/>
<ellipse cx="7185" cy="377.5" rx="96" ry="98.5" fill="white"/>
<ellipse cx="7523.5" cy="377.5" rx="85.5" ry="87.5" fill="white"/>
<ellipse cx="7825" cy="378" rx="76" ry="78" fill="white"/>
<ellipse cx="8104" cy="381" rx="73" ry="75" fill="white"/>
<ellipse cx="4146" cy="374" rx="175" ry="180" fill="white"/>
<ellipse cx="4653" cy="374" rx="164" ry="168" fill="white"/>
<ellipse cx="6436" cy="374" rx="123" ry="126" fill="white"/>
<ellipse cx="6030" cy="377.5" rx="129" ry="132.5" fill="white"/>
<ellipse cx="5593" cy="373.5" rx="138" ry="141.5" fill="white"/>
<ellipse cx="5136" cy="373.5" rx="151" ry="154.5" fill="white"/>
<ellipse cx="7005.28" cy="429.339" rx="101.5" ry="104" transform="rotate(-1.46702 7005.28 429.339)" fill="#F2AEC7"/>
<ellipse cx="7357.64" cy="419.431" rx="96" ry="98.5" transform="rotate(-1.46702 7357.64 419.431)" fill="#F2AEC7"/>
<ellipse cx="7685.03" cy="410.765" rx="85.5" ry="87.5" transform="rotate(-1.46702 7685.03 410.765)" fill="#F2AEC7"/>
<ellipse cx="7969.45" cy="404.546" rx="76" ry="78" transform="rotate(-1.46702 7969.45 404.546)" fill="#F2AEC7"/>
<ellipse cx="8223.43" cy="402.402" rx="73" ry="75" transform="rotate(-1.46702 8223.43 402.402)" fill="#F2AEC7"/>
<ellipse cx="4389.55" cy="493.735" rx="175" ry="180" transform="rotate(-1.46702 4389.55 493.735)" fill="#F2AEC7"/>
<ellipse cx="4896.38" cy="480.755" rx="164" ry="168" transform="rotate(-1.46702 4896.38 480.755)" fill="#F2AEC7"/>
<ellipse cx="6635.8" cy="435.108" rx="123" ry="126" transform="rotate(-1.46702 6635.8 435.108)" fill="#F2AEC7"/>
<ellipse cx="6238.02" cy="449.001" rx="129" ry="132.5" transform="rotate(-1.46702 6238.02 449.001)" fill="#F2AEC7"/>
<ellipse cx="5828.06" cy="456.19" rx="138" ry="141.5" transform="rotate(-1.46702 5828.06 456.19)" fill="#F2AEC7"/>
<ellipse cx="5379.21" cy="467.89" rx="151" ry="154.5" transform="rotate(-1.46702 5379.21 467.89)" fill="#F2AEC7"/>
<ellipse rx="101.5" ry="104" transform="matrix(-0.99906 0.0433435 0.0433435 0.99906 1297.34 307.204)" fill="#0E97E7"/>
<ellipse rx="96" ry="98.5" transform="matrix(-0.99906 0.0433435 0.0433435 0.99906 940.168 322.633)" fill="#0E97E7"/>
<ellipse rx="85.5" ry="87.5" transform="matrix(-0.99906 0.0433435 0.0433435 0.99906 617.986 337.305)" fill="#0E97E7"/>
<ellipse rx="76" ry="78" transform="matrix(-0.99906 0.0433435 0.0433435 0.99906 330.79 344.873)" fill="#0E97E7"/>
<ellipse rx="73" ry="75" transform="matrix(-0.99906 0.0433435 0.0433435 0.99906 76.1826 365.963)" fill="#0E97E7"/>
<ellipse rx="164" ry="168" transform="matrix(-0.99906 0.0433435 0.0433435 0.99906 3399.64 209.391)" fill="#0E97E7"/>
<ellipse rx="123" ry="126" transform="matrix(-0.99906 0.0433435 0.0433435 0.99906 1659.31 286.673)" fill="#0E97E7"/>
<ellipse rx="129" ry="132.5" transform="matrix(-0.99906 0.0433435 0.0433435 0.99906 2064.08 272.572)" fill="#0E97E7"/>
<ellipse rx="138" ry="141.5" transform="matrix(-0.99906 0.0433435 0.0433435 0.99906 2476.5 249.634)" fill="#0E97E7"/>
<ellipse rx="151" ry="154.5" transform="matrix(-0.99906 0.0433435 0.0433435 0.99906 2917.07 229.826)" fill="#0E97E7"/>
<ellipse rx="101.5" ry="104" transform="matrix(-1 0 0 1 1481.3 378)" fill="white"/>
<ellipse rx="96" ry="98.5" transform="matrix(-1 0 0 1 1113.8 377.5)" fill="white"/>
<ellipse rx="85.5" ry="87.5" transform="matrix(-1 0 0 1 775.297 377.5)" fill="white"/>
<ellipse rx="76" ry="78" transform="matrix(-1 0 0 1 473.797 378)" fill="white"/>
<ellipse rx="73" ry="75" transform="matrix(-1 0 0 1 194.797 381)" fill="white"/>
<ellipse rx="164" ry="168" transform="matrix(-1 0 0 1 3645.8 374)" fill="white"/>
<ellipse rx="123" ry="126" transform="matrix(-1 0 0 1 1862.8 374)" fill="white"/>
<ellipse rx="129" ry="132.5" transform="matrix(-1 0 0 1 2268.8 377.5)" fill="white"/>
<ellipse rx="138" ry="141.5" transform="matrix(-1 0 0 1 2705.8 373.5)" fill="white"/>
<ellipse rx="151" ry="154.5" transform="matrix(-1 0 0 1 3162.8 373.5)" fill="white"/>
<ellipse rx="101.5" ry="104" transform="matrix(-0.999672 -0.0256015 -0.0256015 0.999672 1293.52 429.339)" fill="#F2AEC7"/>
<ellipse rx="96" ry="98.5" transform="matrix(-0.999672 -0.0256015 -0.0256015 0.999672 941.152 419.431)" fill="#F2AEC7"/>
<ellipse rx="85.5" ry="87.5" transform="matrix(-0.999672 -0.0256015 -0.0256015 0.999672 613.764 410.765)" fill="#F2AEC7"/>
<ellipse rx="76" ry="78" transform="matrix(-0.999672 -0.0256015 -0.0256015 0.999672 329.348 404.546)" fill="#F2AEC7"/>
<ellipse rx="73" ry="75" transform="matrix(-0.999672 -0.0256015 -0.0256015 0.999672 75.3636 402.402)" fill="#F2AEC7"/>
<ellipse rx="175" ry="180" transform="matrix(-0.999672 -0.0256015 -0.0256015 0.999672 3909.25 493.735)" fill="#F2AEC7"/>
<ellipse rx="164" ry="168" transform="matrix(-0.999672 -0.0256015 -0.0256015 0.999672 3402.41 480.755)" fill="#F2AEC7"/>
<ellipse rx="123" ry="126" transform="matrix(-0.999672 -0.0256015 -0.0256015 0.999672 1663 435.108)" fill="#F2AEC7"/>
<ellipse rx="129" ry="132.5" transform="matrix(-0.999672 -0.0256015 -0.0256015 0.999672 2060.78 449.001)" fill="#F2AEC7"/>
<ellipse rx="138" ry="141.5" transform="matrix(-0.999672 -0.0256015 -0.0256015 0.999672 2470.73 456.19)" fill="#F2AEC7"/>
<ellipse rx="151" ry="154.5" transform="matrix(-0.999672 -0.0256015 -0.0256015 0.999672 2919.58 467.89)" fill="#F2AEC7"/>
</svg>
