<svg width="1572" height="1340" viewBox="0 0 1572 1340" fill="none" xmlns="http://www.w3.org/2000/svg">
<path d="M241.354 786.75C238.688 788.25 235.521 789.25 231.854 789.75C228.354 790.417 224.688 790.75 220.854 790.75V613.25C226.521 610.25 233.354 608.75 241.354 608.75V786.75ZM393.032 758.5C392.199 759.333 391.032 760.083 389.532 760.75C388.032 761.25 386.366 761.75 384.532 762.25C382.866 762.75 381.116 763.167 379.282 763.5C377.449 763.667 375.782 763.75 374.282 763.75L320.032 632.75C318.866 645.75 317.699 659 316.532 672.5C315.532 685.833 314.532 699.083 313.532 712.25C312.699 725.25 311.866 738.083 311.032 750.75C310.366 763.25 309.782 775.25 309.282 786.75C306.782 788.25 303.616 789.25 299.782 789.75C296.116 790.417 292.449 790.75 288.782 790.75C292.282 761.75 296.032 732.333 300.032 702.5C304.032 672.667 308.116 643 312.282 613.5C314.616 612.167 317.699 611.083 321.532 610.25C325.366 609.25 328.949 608.75 332.282 608.75L386.782 743.5C395.282 722.167 403.949 700.5 412.782 678.5C421.782 656.5 430.532 634.583 439.032 612.75C441.699 611.417 444.782 610.417 448.282 609.75C451.949 609.083 455.449 608.75 458.782 608.75L479.782 787C477.449 788.333 474.366 789.25 470.532 789.75C466.699 790.417 462.949 790.75 459.282 790.75L441.532 636.25C433.199 657.083 424.866 677.833 416.532 698.5C408.366 719.167 400.532 739.167 393.032 758.5ZM526.757 616.25C534.257 613.583 542.84 611.25 552.507 609.25C562.174 607.25 572.757 606.25 584.257 606.25C596.257 606.25 606.34 607.75 614.507 610.75C622.674 613.583 629.174 617.417 634.007 622.25C639.007 627.083 642.59 632.583 644.757 638.75C646.924 644.917 648.007 651.25 648.007 657.75C648.007 667.917 645.924 677 641.757 685C637.757 693 632.174 699.75 625.007 705.25C618.007 710.75 609.757 715 600.257 718C590.757 720.833 580.507 722.25 569.507 722.25C565.174 722.25 561.09 722.083 557.257 721.75C553.424 721.417 550.09 721 547.257 720.5V786.75C544.59 788.25 541.424 789.25 537.757 789.75C534.257 790.417 530.59 790.75 526.757 790.75V616.25ZM577.257 617.75C571.257 617.75 565.757 618.083 560.757 618.75C555.757 619.417 551.257 620.167 547.257 621V703.75C550.924 705.75 555.174 707.417 560.007 708.75C565.007 710.083 571.174 710.75 578.507 710.75C593.007 710.75 604.507 706.917 613.007 699.25C621.507 691.583 625.757 680.5 625.757 666C625.757 659.333 624.84 653.083 623.007 647.25C621.174 641.417 618.257 636.333 614.257 632C610.257 627.5 605.174 624 599.007 621.5C593.007 619 585.757 617.75 577.257 617.75ZM688.378 790.75V615.25C694.045 612.083 700.878 610.333 708.878 610C713.711 609.833 720.128 609.75 728.128 609.75C736.295 609.583 744.878 609.417 753.878 609.25C763.045 609.083 771.961 609 780.628 609C789.461 608.833 796.878 608.75 802.878 608.75C802.545 612.25 801.545 615.417 799.878 618.25C798.378 621.083 796.628 622.917 794.628 623.75C788.961 623.75 782.545 623.667 775.378 623.5C768.211 623.167 760.795 622.917 753.128 622.75C745.461 622.417 737.795 622.083 730.128 621.75C722.461 621.417 715.378 621.083 708.878 620.75V694.25L788.128 692.75C787.795 695.75 786.961 698.5 785.628 701C784.295 703.5 782.795 704.917 781.128 705.25C768.961 705.083 756.878 705 744.878 705C732.878 704.833 720.878 704.583 708.878 704.25V779.75C723.545 779.417 738.795 778.917 754.628 778.25C770.461 777.417 787.211 776.417 804.878 775.25C804.378 779.083 803.378 782.417 801.878 785.25C800.378 787.917 798.711 789.75 796.878 790.75H688.378ZM845.36 616C852.694 613.333 861.277 611.083 871.11 609.25C881.11 607.25 891.194 606.25 901.36 606.25C912.694 606.25 922.277 607.583 930.11 610.25C938.11 612.75 944.61 616.25 949.61 620.75C954.61 625.083 958.194 630.167 960.36 636C962.694 641.833 963.86 648 963.86 654.5C963.86 662.5 962.36 669.583 959.36 675.75C956.36 681.75 952.444 687 947.61 691.5C942.944 695.833 937.527 699.5 931.36 702.5C925.194 705.333 919.027 707.5 912.86 709C915.694 710.833 918.36 713.167 920.86 716C923.36 718.667 926.027 721.833 928.86 725.5L953.61 757.5C958.777 764.167 963.527 769.917 967.86 774.75C972.194 779.583 975.86 783.25 978.86 785.75V787.25C976.527 788.417 973.11 789.25 968.61 789.75C964.11 790.417 959.86 790.75 955.86 790.75C954.194 790.083 951.944 788.333 949.11 785.5C946.444 782.5 942.694 777.5 937.86 770.5L908.36 728.75C906.194 725.75 904.11 723.167 902.11 721C900.277 718.833 898.194 717.083 895.86 715.75C893.694 714.25 891.11 713.25 888.11 712.75C885.277 712.083 881.777 711.75 877.61 711.75H865.86V786.75C863.194 788.25 860.027 789.25 856.36 789.75C852.86 790.417 849.194 790.75 845.36 790.75V616ZM892.36 617.75C888.36 617.75 884.027 618 879.36 618.5C874.694 619 870.194 619.75 865.86 620.75V698.25C868.694 699.083 871.944 699.75 875.61 700.25C879.444 700.75 883.777 701 888.61 701C904.944 701 917.86 697.667 927.36 691C936.86 684.333 941.61 674.083 941.61 660.25C941.61 654.25 940.61 648.667 938.61 643.5C936.61 638.167 933.527 633.667 929.36 630C925.36 626.167 920.277 623.167 914.11 621C907.944 618.833 900.694 617.75 892.36 617.75ZM1035.54 786.75C1032.88 788.25 1029.71 789.25 1026.04 789.75C1022.54 790.417 1018.88 790.75 1015.04 790.75V613.25C1020.71 610.25 1027.54 608.75 1035.54 608.75V786.75ZM1068.72 790.75C1074.22 776.75 1080.06 761.833 1086.22 746C1092.39 730 1098.56 714.167 1104.72 698.5C1111.06 682.667 1117.14 667.417 1122.97 652.75C1128.97 637.917 1134.31 624.583 1138.97 612.75C1141.81 611.417 1144.89 610.417 1148.22 609.75C1151.56 609.083 1154.89 608.75 1158.22 608.75L1224.47 788C1222.97 788.833 1220.89 789.5 1218.22 790C1215.56 790.667 1212.39 791 1208.72 791C1207.89 791 1207.06 791 1206.22 791C1205.56 791 1204.81 790.917 1203.97 790.75L1184.47 737.75H1104.47C1098.64 755.583 1093.47 772.583 1088.97 788.75C1087.47 789.583 1085.47 790.167 1082.97 790.5C1080.64 791 1078.22 791.25 1075.72 791.25C1074.22 791.25 1072.89 791.167 1071.72 791C1070.56 791 1069.56 790.917 1068.72 790.75ZM1144.22 627.25C1138.39 642.417 1132.39 658.417 1126.22 675.25C1120.22 691.917 1114.31 708.75 1108.47 725.75H1180.22L1144.22 627.25ZM1280.9 779.75C1294.4 779.25 1308.4 778.583 1322.9 777.75C1337.4 776.917 1353.73 775.917 1371.9 774.75C1371.57 778.583 1370.65 782 1369.15 785C1367.65 787.833 1365.98 789.75 1364.15 790.75H1260.4V613.25C1266.07 610.25 1272.9 608.75 1280.9 608.75V779.75ZM562.282 1201.75C559.616 1203.25 556.449 1204.25 552.782 1204.75C549.282 1205.42 545.616 1205.75 541.782 1205.75V1118H442.032V1201.75C439.366 1203.25 436.199 1204.25 432.532 1204.75C429.032 1205.42 425.366 1205.75 421.532 1205.75V1028.25C427.199 1025.25 434.032 1023.75 442.032 1023.75V1106.25H541.782V1028.25C547.449 1025.25 554.282 1023.75 562.282 1023.75V1201.75ZM629.083 1109.25C629.083 1123.42 630.833 1135.92 634.333 1146.75C638 1157.58 642.833 1166.75 648.833 1174.25C654.833 1181.58 661.833 1187.17 669.833 1191C678 1194.83 686.583 1196.75 695.583 1196.75C714.75 1196.75 729.583 1190.17 740.083 1177C750.75 1163.83 756.083 1144.08 756.083 1117.75C756.083 1104.92 754.5 1093.33 751.333 1083C748.166 1072.5 743.666 1063.58 737.833 1056.25C732.166 1048.75 725.25 1043 717.083 1039C709.083 1035 700.083 1033 690.083 1033C682.083 1033 674.333 1034.5 666.833 1037.5C659.5 1040.5 653 1045.17 647.333 1051.5C641.833 1057.67 637.416 1065.58 634.083 1075.25C630.75 1084.75 629.083 1096.08 629.083 1109.25ZM606.833 1117.25C606.833 1103.08 609.25 1090.17 614.083 1078.5C619.083 1066.67 625.666 1056.5 633.833 1048C642.166 1039.5 651.75 1032.92 662.583 1028.25C673.583 1023.58 685.166 1021.25 697.333 1021.25C710.5 1021.25 722.083 1023.5 732.083 1028C742.25 1032.5 750.75 1038.75 757.583 1046.75C764.416 1054.75 769.583 1064.17 773.083 1075C776.583 1085.67 778.333 1097.25 778.333 1109.75C778.333 1123.58 776.333 1136.5 772.333 1148.5C768.333 1160.5 762.5 1170.92 754.833 1179.75C747.166 1188.58 737.75 1195.58 726.583 1200.75C715.583 1205.92 703.083 1208.5 689.083 1208.5C677.916 1208.5 667.333 1206.42 657.333 1202.25C647.5 1198.08 638.833 1192.08 631.333 1184.25C623.833 1176.25 617.833 1166.67 613.333 1155.5C609 1144.17 606.833 1131.42 606.833 1117.25ZM914.761 1173.5C913.927 1174.33 912.761 1175.08 911.261 1175.75C909.761 1176.25 908.094 1176.75 906.261 1177.25C904.594 1177.75 902.844 1178.17 901.011 1178.5C899.177 1178.67 897.511 1178.75 896.011 1178.75L841.761 1047.75C840.594 1060.75 839.427 1074 838.261 1087.5C837.261 1100.83 836.261 1114.08 835.261 1127.25C834.427 1140.25 833.594 1153.08 832.761 1165.75C832.094 1178.25 831.511 1190.25 831.011 1201.75C828.511 1203.25 825.344 1204.25 821.511 1204.75C817.844 1205.42 814.177 1205.75 810.511 1205.75C814.011 1176.75 817.761 1147.33 821.761 1117.5C825.761 1087.67 829.844 1058 834.011 1028.5C836.344 1027.17 839.427 1026.08 843.261 1025.25C847.094 1024.25 850.677 1023.75 854.011 1023.75L908.511 1158.5C917.011 1137.17 925.677 1115.5 934.511 1093.5C943.511 1071.5 952.261 1049.58 960.761 1027.75C963.427 1026.42 966.511 1025.42 970.011 1024.75C973.677 1024.08 977.177 1023.75 980.511 1023.75L1001.51 1202C999.177 1203.33 996.094 1204.25 992.261 1204.75C988.427 1205.42 984.677 1205.75 981.011 1205.75L963.261 1051.25C954.927 1072.08 946.594 1092.83 938.261 1113.5C930.094 1134.17 922.261 1154.17 914.761 1173.5ZM1048.49 1205.75V1030.25C1054.15 1027.08 1060.99 1025.33 1068.99 1025C1073.82 1024.83 1080.24 1024.75 1088.24 1024.75C1096.4 1024.58 1104.99 1024.42 1113.99 1024.25C1123.15 1024.08 1132.07 1024 1140.74 1024C1149.57 1023.83 1156.99 1023.75 1162.99 1023.75C1162.65 1027.25 1161.65 1030.42 1159.99 1033.25C1158.49 1036.08 1156.74 1037.92 1154.74 1038.75C1149.07 1038.75 1142.65 1038.67 1135.49 1038.5C1128.32 1038.17 1120.9 1037.92 1113.24 1037.75C1105.57 1037.42 1097.9 1037.08 1090.24 1036.75C1082.57 1036.42 1075.49 1036.08 1068.99 1035.75V1109.25L1148.24 1107.75C1147.9 1110.75 1147.07 1113.5 1145.74 1116C1144.4 1118.5 1142.9 1119.92 1141.24 1120.25C1129.07 1120.08 1116.99 1120 1104.99 1120C1092.99 1119.83 1080.99 1119.58 1068.99 1119.25V1194.75C1083.65 1194.42 1098.9 1193.92 1114.74 1193.25C1130.57 1192.42 1147.32 1191.42 1164.99 1190.25C1164.49 1194.08 1163.49 1197.42 1161.99 1200.25C1160.49 1202.92 1158.82 1204.75 1156.99 1205.75H1048.49Z" fill="white"/>
<g clip-path="url(#clip0_48_2)">
<path d="M777.21 2.06809C777.21 3.1883 777.814 4.56702 778.504 5.17022C779.194 5.77341 779.798 7.15213 779.798 8.18618C779.798 9.30639 780.402 10.3404 781.092 10.6851C782.127 11.0298 782.385 13.1841 782.385 21.9734C782.385 30.7628 782.127 32.917 781.092 33.2617C780.315 33.6064 779.798 34.899 779.798 36.3639C779.798 39.5522 777.728 39.2075 777.383 35.933C777.21 34.6404 776.52 33.6064 775.83 33.6064C774.795 33.6064 774.622 36.0192 774.622 47.8245V62.0426H786.267H797.912V47.8245C797.912 35.7607 797.739 33.6064 796.618 33.6064C795.755 33.6064 795.324 34.4681 795.324 36.1915C795.324 37.9149 794.893 38.7766 794.03 38.7766C793.167 38.7766 792.736 37.9149 792.736 36.2777C792.736 34.899 792.219 33.6064 791.442 33.2617C790.407 32.917 790.148 30.849 790.148 22.1458C790.148 13.6149 790.407 11.2021 791.442 10.3404C792.132 9.73724 792.736 8.61703 792.736 7.75532C792.736 6.89362 793.34 5.77341 794.03 5.17022C795.583 3.87766 795.755 0 794.289 0C793.685 0 792.391 1.20638 791.442 2.58511C789.2 5.94575 787.561 5.94575 787.561 2.58511C787.561 0.861703 787.13 0 786.267 0C785.404 0 784.973 0.861703 784.973 2.58511C784.973 5.94575 783.334 5.94575 781.092 2.58511C779.021 -0.517022 777.21 -0.775532 777.21 2.06809Z" fill="#917440"/>
<path d="M770.741 67.3661C768.584 69.6065 767.636 69.9512 763.754 69.9512C760.563 69.9512 759.096 70.2959 758.751 71.2438C758.493 72.0193 757.112 72.5363 755.474 72.5363C753.921 72.6225 751.678 73.1395 750.471 73.8289C749.263 74.5182 747.624 75.0353 746.762 75.1214C744.174 75.1214 733.306 80.981 727.182 85.4619C717.693 92.5278 705.704 106.401 702.254 114.501C701.736 115.449 700.96 116.569 700.529 116.914C700.011 117.173 699.58 118.293 699.58 119.241C699.58 120.275 698.976 121.74 698.2 122.601C696.129 124.928 697.251 126.824 700.787 126.824C703.461 126.824 703.979 126.479 705.79 122.687C707.602 119.068 708.119 118.637 710.966 118.379C713.984 118.12 714.243 118.293 716.4 122.429C718.125 125.962 718.987 126.824 720.712 126.824C722.524 126.824 722.869 126.393 722.869 124.238C722.869 121.826 723.128 121.653 725.802 121.653C727.44 121.653 729.338 121.05 730.114 120.361C730.804 119.671 732.184 119.068 733.133 119.068C735.376 119.068 736.066 117.776 734.513 116.483C733.823 115.88 733.22 114.674 733.22 113.812C733.22 112.95 732.788 112.002 732.271 111.744C730.891 110.796 729.856 107.349 730.373 105.367C731.063 102.696 734.513 103.041 738.74 106.315C743.484 110.107 745.64 112.864 746.158 115.966C746.503 118.034 747.107 118.724 748.746 118.896C749.953 119.068 751.247 119.758 751.592 120.447C752.023 121.223 753.835 121.653 756.94 121.653C761.339 121.653 761.598 121.74 761.857 123.98C762.029 125.876 762.547 126.393 764.272 126.393C765.911 126.393 766.514 125.876 766.859 123.721C767.722 119.758 768.412 119.068 771.517 119.068C774.709 119.068 776.175 120.361 777.124 123.894C777.728 126.22 777.728 126.22 785.491 126.22C794.116 126.22 795.324 125.876 795.324 123.032C795.324 120.361 796.876 119.068 800.154 119.068C803.173 119.068 804.639 120.361 805.588 123.98C806.451 127.254 810.074 127.427 810.85 124.238C811.281 122.343 811.885 122.084 815.594 121.826C818.268 121.653 820.338 121.05 820.942 120.188C821.546 119.413 822.839 118.81 823.961 118.724C825.6 118.637 826.031 118.034 826.203 115.621C826.462 112.519 828.274 110.451 834.57 105.626C838.193 102.954 841.385 103.127 841.73 106.057C842.075 108.038 840.004 112.95 837.762 115.794C836.209 117.603 837.072 119.068 839.746 119.068C840.781 119.068 841.902 119.671 842.247 120.361C842.506 121.223 843.886 121.653 846.215 121.653C849.493 121.653 849.665 121.826 849.665 124.238C849.665 126.393 850.01 126.824 851.821 126.824C853.46 126.824 854.237 126.048 855.617 122.946C858.377 116.655 863.552 116.483 866.485 122.687C868.038 125.962 868.641 126.393 871.488 126.651C875.283 126.996 876.577 125.1 874.334 122.601C873.558 121.74 872.954 120.447 872.954 119.671C872.954 118.896 872.609 118.12 872.178 117.862C871.747 117.603 870.367 115.363 869.073 112.864C864.501 103.988 855.272 93.0448 846.905 86.6682C844.231 84.6002 841.816 82.8768 841.557 82.8768C841.298 82.8768 839.401 81.6704 837.33 80.2917C835.174 78.8268 833.018 77.7065 832.414 77.7065C831.81 77.7065 830.344 77.1895 829.136 76.5002C825.686 74.7768 818.44 72.5363 816.198 72.5363C815.163 72.5363 814.041 71.9331 813.783 71.2438C813.438 70.2959 811.971 69.9512 808.78 69.9512C804.898 69.9512 803.949 69.6065 801.793 67.3661L799.292 64.781H786.267H773.242L770.741 67.3661Z" fill="#917440"/>
<path d="M733.651 105.62C733.306 106.051 733.651 107.171 734.427 108.033C735.203 108.894 735.807 110.187 735.807 110.963C735.807 111.738 736.411 112.686 737.187 113.117C739.344 114.323 738.481 119.666 736.066 120.01C735.031 120.183 733.737 120.872 733.22 121.561C732.616 122.251 730.804 122.768 729.166 122.768C727.354 122.768 726.06 123.285 725.802 124.06C725.456 124.75 724.766 125.353 724.076 125.353C723.128 125.353 722.869 126.818 722.869 131.213C722.869 136.641 723.041 137.244 725.457 139.14C728.217 141.467 728.993 145.517 726.75 146.378C725.974 146.637 725.457 147.93 725.457 149.825C725.457 152.497 724.421 153.789 717.176 161.027C712.691 165.594 708.637 169.3 708.119 169.3C706.221 169.3 707.86 167.146 715.106 159.993C722.006 153.1 722.869 151.98 722.869 149.136C722.869 146.982 723.214 146.034 724.163 146.034C726.405 146.034 725.629 142.242 722.869 140.002C720.712 138.106 720.367 137.244 720.281 133.281C720.281 129.231 720.022 128.627 718.125 127.938C716.917 127.507 715.71 126.387 715.365 125.611C715.106 124.75 714.071 123.199 713.122 122.078L711.311 120.183L709.327 122.078C708.205 123.113 707.343 124.836 707.343 125.956V128.024L695.957 127.766L684.485 127.507L684.054 122.768L683.622 118.028L680.345 117.77C678.447 117.598 676.808 116.908 676.549 116.219C675.946 114.582 674.911 114.668 672.84 116.736C671.46 118.115 671.115 119.58 671.115 123.974C671.115 127.766 670.684 129.748 669.821 130.523C668.873 131.299 668.528 134.315 668.355 144.138C668.096 154.651 667.838 156.805 666.802 156.891C654.209 158.356 644.462 161.114 635.578 165.594C634.37 166.198 632.818 166.715 632.128 166.715C631.438 166.715 630.057 167.663 628.936 168.697L627.038 170.765L630.316 172.919C632.818 174.642 634.37 175.073 636.699 174.729C638.51 174.47 640.149 174.729 640.408 175.246C640.753 175.763 641.702 176.193 642.565 176.193C643.427 176.193 644.893 177.055 645.929 178.175C647.395 179.726 647.826 181.364 647.999 187.396L648.257 194.72H671.115H693.973V192.566C693.973 190.67 693.542 190.325 690.523 189.981L687.073 189.55L686.814 172.402C686.641 155.771 686.641 155.168 688.539 153.186C691.127 150.428 698.545 150.342 702.254 153.1L704.841 155.082L704.583 163.009C704.41 170.075 704.496 171.109 706.049 172.316C707.774 173.608 707.688 173.694 705.014 176.021C703.461 177.4 702.167 179.037 702.167 179.813C702.167 180.588 701.564 181.622 700.874 182.225C700.184 182.829 699.58 183.949 699.58 184.81C699.58 185.672 698.976 186.792 698.286 187.396C697.423 188.085 696.992 190.067 696.992 193.083V197.736L672.668 197.908L648.257 198.167L647.999 202.734C647.826 206.181 648.085 207.387 649.034 207.732C650.069 208.163 650.414 209.541 650.414 213.247C650.414 218.158 650.328 218.331 648.085 218.589C646.274 218.762 645.583 219.365 645.411 221.002C645.238 222.122 644.548 223.501 643.772 224.018C642.91 224.707 642.651 226.345 642.823 230.481L643.082 236.082L680.172 236.254C700.615 236.426 717.78 236.168 718.384 235.737C719.16 235.306 719.85 231.946 720.281 226.517C721.144 217.124 722.438 209.972 724.249 205.75C724.939 204.285 725.457 202.648 725.457 202.217C725.457 201.7 726.147 200.063 726.923 198.425C727.699 196.874 728.907 194.375 729.597 192.997C731.581 188.947 737.446 180.33 740.465 177.227C744.174 173.177 752.627 166.715 754.18 166.715C754.87 166.715 755.905 166.111 756.509 165.422C757.112 164.733 758.148 164.13 758.838 164.13C759.528 164.13 760.908 163.613 761.943 163.096C765.997 160.769 773.846 159.563 786.526 159.218C797.394 158.959 799.982 159.132 801.534 160.252C802.569 160.941 804.294 161.544 805.33 161.544C806.365 161.544 808.348 162.148 809.642 162.837C811.022 163.526 812.834 164.13 813.61 164.13C814.386 164.13 815.335 164.56 815.594 165.077C815.939 165.508 817.06 166.284 818.009 166.801C826.031 170.248 838.021 182.656 841.816 191.446C843.884 194.545 844.05 197.188 845.697 200.149C847.509 203.854 848.889 208.163 849.751 212.988C850.183 215.487 850.959 218.503 851.39 219.709C851.908 221.002 852.253 225.052 852.253 228.757C852.253 235.134 852.425 235.651 854.237 236.082C855.272 236.34 872.609 236.426 892.793 236.34L929.452 236.082L929.711 230.481C929.883 226.345 929.624 224.707 928.762 224.018C927.986 223.501 927.295 222.122 927.123 221.002C926.95 219.365 926.26 218.762 924.535 218.589C922.206 218.331 922.12 218.158 922.12 213.247C922.12 209.541 922.465 208.163 923.5 207.732C924.449 207.387 924.708 206.181 924.535 202.734L924.276 198.167L899.952 197.908L875.542 197.736V195.065C875.542 193.6 875.024 191.359 874.334 190.153C873.644 188.86 872.264 186.103 871.229 183.949C870.194 181.794 868.641 178.865 867.693 177.486C865.019 173.264 864.846 172.574 866.313 171.713C867.52 171.109 867.779 169.472 867.779 163.096C867.779 156.202 868.038 155.082 869.763 153.272C872.437 150.342 880.286 150.342 883.564 153.186L885.893 155.168V171.54C885.893 183.087 885.548 188.257 884.858 188.947C884.254 189.55 882.529 189.981 880.89 189.981C878.302 189.981 878.043 190.153 878.302 192.307L878.561 194.72H901.419H924.276L924.018 188.43C923.759 181.019 925.225 177.4 928.848 176.538C930.142 176.193 931.694 175.59 932.298 175.073C932.902 174.642 934.713 174.47 936.439 174.729C938.94 175.159 940.061 174.815 942.476 172.919L945.323 170.679L943.512 168.697C942.477 167.576 941.096 166.715 940.406 166.715C939.716 166.715 938.164 166.198 936.956 165.508C929.624 161.717 913.753 157.236 907.37 157.236C905.99 157.236 904.61 156.719 904.438 156.116C904.265 155.599 903.92 149.739 903.748 143.19C903.575 135.521 903.144 131.04 902.454 130.351C901.85 129.748 901.419 126.99 901.419 123.888C901.419 119.58 901.074 118.115 899.694 116.736C897.623 114.668 896.588 114.582 895.898 116.305C895.64 117.081 894.346 117.598 892.448 117.598C888.825 117.598 888.48 118.115 888.135 123.371L887.963 127.507L876.577 127.766L865.191 128.024V125.956C865.191 124.836 864.329 123.113 863.207 122.078L861.223 120.183L859.326 122.165C858.291 123.285 857.428 125.008 857.428 125.956C857.428 127.335 856.824 127.852 855.099 128.11C852.857 128.369 852.684 128.627 852.425 133.022C852.167 136.9 851.735 138.02 849.579 139.916C846.905 142.242 846.129 146.034 848.371 146.034C849.234 146.034 849.665 146.896 849.665 148.964C849.665 151.635 850.614 152.927 857.428 159.649C864.587 166.715 866.485 169.3 864.415 169.3C863.897 169.3 859.843 165.594 855.358 161.027C847.681 153.444 847.077 152.583 847.077 149.394C847.077 147.154 846.732 146.034 845.87 146.034C845.266 146.034 844.49 145.172 844.231 144.138C843.8 142.673 844.403 141.553 846.646 139.571C849.493 137.072 849.665 136.641 849.665 131.126C849.665 126.732 849.406 125.353 848.458 125.353C847.767 125.353 847.077 124.75 846.732 124.06C846.474 123.199 845.094 122.768 842.851 122.768C840.781 122.768 839.314 122.337 839.056 121.561C838.797 120.872 837.676 120.183 836.554 120.01C835.002 119.838 834.484 119.149 834.312 116.65C834.139 114.668 834.484 113.203 835.347 112.427C836.123 111.824 836.727 110.618 836.727 109.756C836.727 108.894 837.331 107.86 838.107 107.43C838.883 106.999 839.314 106.223 838.969 105.62C838.107 104.241 837.357 104.547 836.727 105.965C836.42 106.654 836.32 106.951 835.864 107.257C835.506 107.498 833.708 108.55 832.069 110.101C829.826 112.255 829.05 113.892 828.791 116.391C828.619 118.976 828.101 119.838 826.807 120.01C825.858 120.183 824.478 120.872 823.788 121.475C823.098 122.165 820.511 122.768 818.182 122.94C814.214 123.199 813.869 123.371 813.61 125.525C813.351 127.852 813.179 127.938 808.176 127.938H803.087V124.06C803.087 120.355 803.001 120.183 800.499 120.183C797.998 120.183 797.912 120.355 797.912 124.06V127.938H786.267H774.622V124.06C774.622 120.355 774.536 120.183 772.121 120.183C769.706 120.183 769.533 120.441 769.275 123.802L769.016 127.507H763.84C758.924 127.507 758.665 127.421 758.665 125.353C758.665 123.371 758.32 123.199 754.352 122.94C752.023 122.768 749.436 122.165 748.746 121.475C748.056 120.872 746.675 120.183 745.727 120.01C744.433 119.838 743.915 118.976 743.743 116.564C743.57 114.151 742.621 112.6 739.602 109.928C737.532 107.947 735.807 105.965 735.807 105.534C735.807 104.414 734.341 104.414 733.651 105.62Z" fill="#917440"/>
<path d="M579.253 159.046C577.873 159.477 575.889 159.649 574.94 159.39C573.819 159.218 571.576 160.08 569.333 161.545C567.177 163.009 564.762 164.13 563.985 164.13C563.123 164.13 561.398 165.25 560.104 166.715C558.896 168.094 557.171 169.3 556.309 169.3C552.772 169.3 551.996 172.488 552.255 186.62L552.513 199.89H581.84H611.167V184.811C611.167 170.162 611.167 169.817 609.27 169.3C608.235 169.041 606.596 167.835 605.647 166.629C604.698 165.336 602.801 164.044 601.507 163.699C600.213 163.44 598.056 162.32 596.59 161.286C595.037 160.166 592.536 159.39 590.466 159.304C588.568 159.304 585.894 158.959 584.428 158.701C583.048 158.442 580.719 158.529 579.253 159.046Z" fill="#917440"/>
<path d="M985.518 158.959C984.138 159.39 982.154 159.563 981.033 159.304C979.825 158.959 978.273 159.39 976.806 160.597C975.513 161.544 973.011 162.837 971.2 163.268C969.216 163.785 967.232 165.077 966.369 166.37C965.593 167.576 964.04 168.955 962.919 169.386L960.935 170.161L961.108 184.983L961.367 199.89H990.694H1020.02L1020.28 186.706C1020.45 175.763 1020.28 173.264 1019.07 171.454C1018.3 170.248 1017 169.3 1016.23 169.3C1015.36 169.3 1013.64 168.093 1012.26 166.715C1010.88 165.25 1009.15 164.13 1008.38 164.13C1007.51 164.13 1005.36 163.096 1003.55 161.803C1001.65 160.51 998.888 159.476 997.163 159.39C995.524 159.304 992.764 158.959 991.125 158.701C989.486 158.442 986.985 158.528 985.518 158.959Z" fill="#917440"/>
<path d="M773.76 162.837C773.156 163.526 771.345 164.13 769.706 164.13C768.067 164.13 765.652 164.647 764.444 165.336C763.15 165.939 760.218 167.404 757.975 168.524C750.557 172.143 749.694 172.747 745.382 176.883C740.983 181.191 733.22 191.015 733.22 192.393C733.22 192.824 732.098 195.323 730.632 197.994C729.252 200.666 728.044 203.768 728.044 204.888C728.044 206.008 727.613 207.301 727.095 207.818C726.578 208.335 725.888 210.834 725.456 213.333C725.025 215.918 724.249 219.796 723.731 221.95C723.214 224.19 722.869 228.24 723.041 230.998L723.3 236.082L730.632 236.34C735.893 236.513 738.136 236.943 738.654 237.805C738.999 238.494 740.12 239.098 741.069 239.098C741.931 239.098 743.484 239.615 744.433 240.132C747.193 241.855 748.056 239.959 748.487 231.687C748.746 227.12 749.349 223.415 750.126 222.381C750.715 219.3 752.798 216.574 753.748 214.281C754.611 211.868 761.339 204.199 764.185 202.561C773.07 197.305 778.598 194.799 778.598 197.126C778.598 198.505 772.035 202.906 769.965 202.906C768.843 202.906 762.374 208.249 759.614 211.351C756.767 214.625 753.921 219.537 753.921 221.26C753.921 221.95 753.317 223.673 752.627 225.138C751.678 226.948 751.333 229.705 751.506 234.1L751.765 240.39H786.267H820.769L821.028 235.392C821.287 230.567 820.166 225.914 816.543 217.469C814.3 212.04 807.917 205.836 801.362 202.734C795.324 199.89 791.43 196.869 795.139 196.869C799.452 196.869 811.109 204.113 815.335 209.886C818.699 214.367 820.252 216.78 820.683 217.986C820.769 218.417 821.459 220.226 822.063 221.864C822.667 223.501 823.357 227.551 823.53 230.911C823.961 239.27 824.392 240.821 826.376 240.821C827.239 240.821 828.274 240.39 828.532 239.959C828.791 239.442 829.999 239.098 831.12 239.098C832.241 239.098 833.535 238.494 833.88 237.805C834.398 236.943 836.64 236.513 841.902 236.34L849.234 236.082L849.493 231.859C849.665 229.619 849.32 225.914 848.803 223.673C848.285 221.519 847.509 217.727 847.077 215.401C846.387 211.092 845.266 207.387 843.196 202.475C842.506 201.01 841.385 198.339 840.608 196.443C839.832 194.548 838.797 192.393 838.366 191.704C837.934 191.015 837.33 189.808 836.985 189.119C834.053 182.484 822.926 172.316 813.869 168.093C811.971 167.146 809.384 165.939 808.09 165.25C806.882 164.647 804.812 164.13 803.604 164.13C802.311 164.13 801.103 163.526 800.844 162.837C800.413 161.803 798.084 161.544 787.561 161.544C777.296 161.544 774.622 161.803 773.76 162.837ZM794.466 196.53C794.466 197.564 792.219 197.736 786.353 197.736C779.625 197.736 777.296 197.133 778.676 195.668C778.935 195.409 782.472 195.151 786.439 195.151C792.219 195.151 794.466 195.496 794.466 196.53Z" fill="#917440"/>
<path d="M617.637 171.799L614.618 172.316L614.359 188.861L614.186 205.491H612.116C610.995 205.491 609.615 204.888 609.011 204.199C608.062 203.079 604.008 202.906 581.84 202.906C559.673 202.906 555.618 203.079 554.67 204.199C554.066 204.888 552.686 205.491 551.564 205.491H549.494L549.322 188.861L549.063 172.316L545.268 172.057C539.92 171.626 537.505 172.488 536.556 174.901C535.866 176.624 535.09 177.055 532.761 177.055C528.534 177.055 527.068 177.831 527.068 180.071C527.068 181.191 526.033 183.259 524.825 184.724C522.755 187.223 522.151 187.396 517.148 187.396C511.973 187.396 511.542 187.568 510.507 189.722C509.644 191.618 508.695 192.221 506.108 192.393C503.606 192.652 502.916 192.997 502.916 194.375C502.916 195.323 502.312 197.219 501.622 198.598C500.501 200.666 500.501 201.441 501.363 202.906C502.226 204.285 502.226 204.974 501.363 206.353C500.846 207.301 500.328 209.024 500.328 210.231C500.328 211.351 499.725 213.678 498.948 215.315C496.619 220.054 497.568 221.002 504.555 221.002H510.507L510.075 215.832L509.558 210.662H528.965C545.182 210.662 548.632 210.489 549.494 209.369C550.098 208.68 551.823 208.076 553.376 208.076C554.928 208.076 556.654 207.473 557.257 206.784C558.12 205.664 561.743 205.491 579.253 205.491C596.763 205.491 600.385 205.664 601.248 206.784C601.852 207.473 603.577 208.076 605.129 208.076C606.682 208.076 608.407 208.68 609.011 209.369C609.96 210.489 612.806 210.662 627.47 210.489L644.807 210.231V195.151V180.071L642.823 179.813C641.702 179.64 640.581 178.951 640.322 178.262C639.718 176.624 635.75 176.71 634.543 178.434C633.68 179.554 633.249 179.382 631.006 177.141C629.54 175.676 627.815 174.47 627.125 174.47C626.348 174.47 625.141 173.695 624.278 172.747C622.726 170.937 622.553 170.937 617.637 171.799Z" fill="#917440"/>
<path d="M947.997 172.661C947.479 173.695 946.444 174.47 945.582 174.47C944.805 174.47 942.994 175.677 941.528 177.141C939.285 179.382 938.854 179.554 937.991 178.434C936.784 176.711 933.678 176.624 932.73 178.262C932.385 178.951 931.091 179.64 929.883 179.813L927.727 180.071V195.151V210.231L943.77 210.489C957.313 210.662 959.986 210.489 960.935 209.369C961.625 208.507 963.523 208.077 966.111 208.077C968.698 208.077 970.596 207.56 971.286 206.784C972.149 205.664 975.771 205.491 993.281 205.491C1010.79 205.491 1014.41 205.664 1015.28 206.784C1015.88 207.473 1017.61 208.077 1019.16 208.077C1020.71 208.077 1022.44 208.68 1023.04 209.369C1023.9 210.403 1027.61 210.662 1043.22 210.834L1062.29 211.093L1062.54 214.281C1062.72 216.78 1062.46 217.641 1060.99 218.417C1057.89 220.054 1060.04 221.002 1067.12 221.002C1074.88 221.002 1076.09 220.054 1073.59 215.832C1072.81 214.453 1072.21 212.299 1072.21 210.92C1072.21 209.541 1071.6 207.646 1070.91 206.612C1069.79 205.061 1069.79 204.371 1070.65 202.993C1071.43 201.7 1071.43 200.838 1070.65 199.029C1070.05 197.822 1069.62 195.84 1069.62 194.72C1069.62 192.997 1069.19 192.652 1066.43 192.394C1063.84 192.221 1062.89 191.618 1062.03 189.722C1060.99 187.568 1060.56 187.396 1055.47 187.396C1050.81 187.396 1049.78 187.137 1048.05 185.241C1046.85 184.035 1045.55 181.795 1045.03 180.244C1044.26 177.831 1043.74 177.4 1040.46 177.055C1037.62 176.711 1036.5 176.107 1035.72 174.47C1034.68 172.488 1034.17 172.316 1029.08 172.316H1023.47L1023.21 188.861L1023.04 205.491H1020.97C1019.85 205.491 1018.47 204.888 1017.86 204.199C1016.92 203.079 1012.86 202.906 990.694 202.906C968.526 202.906 964.472 203.079 963.523 204.199C962.919 204.888 961.539 205.491 960.418 205.491H958.348V189.205C958.348 180.157 958.089 172.661 957.744 172.488C957.313 172.23 955.242 171.799 953 171.54C949.463 171.023 948.859 171.196 947.997 172.661Z" fill="#917440"/>
<path d="M561.053 209.369C560.19 210.058 557.947 210.662 556.136 210.662C554.066 210.662 552.686 211.092 552.427 211.954C551.996 212.988 549.667 213.247 539.057 213.247C526.895 213.247 526.205 213.333 526.205 214.884C526.205 215.918 527.758 217.728 530 219.279L533.796 222.036L534.141 229.274C534.313 233.238 534.917 236.944 535.435 237.461C537.332 239.356 570.023 236.944 572.266 234.703C572.783 234.272 578.304 233.928 584.601 233.928C594.261 233.928 596.073 234.1 596.073 235.22C596.073 236.34 598.833 236.513 617.895 236.34L639.632 236.082L639.891 230.05C640.063 226.517 640.667 223.501 641.357 222.725C641.961 222.036 642.651 220.227 642.823 218.848C642.996 216.952 643.6 216.177 645.066 216.004C646.101 215.832 646.964 215.142 646.964 214.453C646.964 213.419 643.772 213.247 627.038 213.247C610.564 213.247 606.941 212.988 605.906 211.954C605.129 211.265 603.491 210.662 602.11 210.662C600.817 210.662 598.574 210.058 597.28 209.369C593.657 207.473 563.554 207.473 561.053 209.369Z" fill="#917440"/>
<path d="M974.736 209.369C974.046 210.231 972.062 210.662 968.957 210.662C965.679 210.662 964.213 211.006 963.868 211.954C963.437 213.074 960.418 213.247 944.46 213.247C928.676 213.247 925.57 213.419 925.57 214.453C925.57 215.142 926.433 215.832 927.554 216.004C929.021 216.177 929.538 216.866 929.711 219.279C929.883 220.916 930.487 222.725 931.177 223.242C931.953 223.846 932.471 226.258 932.643 230.136L932.902 236.082L953.431 236.34C971.2 236.513 973.874 236.34 973.874 235.22C973.874 234.1 975.858 233.928 986.812 233.928C997.939 233.928 999.75 234.1 999.75 235.306C999.75 236.254 1000.44 236.599 1002.17 236.427C1008.29 235.996 1012.69 236.513 1012.69 237.805C1012.69 238.925 1014.85 239.098 1026.92 239.098H1041.15V230.05C1041.15 222.553 1041.41 221.002 1042.45 221.002C1043.14 221.002 1043.74 220.485 1043.74 219.796C1043.74 219.106 1044.34 218.331 1045.12 218.072C1045.9 217.814 1046.33 216.78 1046.16 215.66C1045.9 213.678 1045.64 213.678 1033.39 213.419C1023.47 213.247 1020.8 212.902 1020.19 211.954C1019.85 211.179 1018.3 210.662 1016.66 210.662C1015.02 210.662 1012.6 210.058 1011.31 209.369C1007.69 207.473 976.289 207.473 974.736 209.369Z" fill="#917440"/>
<path d="M513.526 214.539C513.267 215.315 513.698 216.607 514.474 217.469C515.251 218.331 515.855 219.623 515.855 220.485C515.855 221.347 517.062 222.467 518.701 223.156C522.841 224.88 523.531 226 523.79 232.204L524.049 237.805H527.499H530.949L531.208 231.429L531.467 225.138L527.844 222.036C525.86 220.313 523.704 217.641 523.1 216.09C521.979 213.505 521.547 213.247 518.011 213.247C515.251 213.247 513.957 213.677 513.526 214.539Z" fill="#917440"/>
<path d="M1049.52 213.764C1049.18 214.108 1048.92 215.315 1048.92 216.349C1048.92 217.555 1047.88 219.106 1046.33 220.313C1043.83 222.122 1043.74 222.381 1043.74 229.274C1043.74 237.46 1044.17 239.098 1046.33 239.098C1048.4 239.098 1048.92 237.46 1048.92 231.256C1048.92 227.292 1049.18 226.172 1050.21 226.172C1050.9 226.172 1051.5 225.569 1051.5 224.88C1051.5 224.018 1052.37 223.587 1054.09 223.587C1056.42 223.587 1056.68 223.328 1056.68 221.002C1056.68 219.192 1057.11 218.417 1058.06 218.417C1059.01 218.417 1059.27 217.727 1059.09 216.004C1058.84 213.85 1058.49 213.677 1054.52 213.419C1052.11 213.247 1049.87 213.419 1049.52 213.764Z" fill="#917440"/>
<path d="M1056.68 224.88C1056.68 225.741 1055.82 226.172 1054.09 226.172H1051.5V232.635C1051.5 237.633 1051.85 239.27 1052.8 239.615C1053.49 239.96 1054.09 241.08 1054.09 242.2C1054.09 244.268 1054.09 244.268 1064.44 244.268C1074.1 244.268 1074.79 244.182 1074.79 242.631C1074.79 241.683 1077.73 237.891 1081.26 234.186C1085.4 229.878 1087.73 226.775 1087.73 225.569V223.587H1072.21C1059.01 223.587 1056.68 223.759 1056.68 224.88Z" fill="#917440"/>
<path d="M485.665 225.828C485.665 227.982 487.131 230.136 491.617 234.617C493.859 236.857 496.447 239.787 497.223 240.994C498.69 243.234 498.948 243.32 508.005 243.32H517.407L518.787 239.529C519.65 237.374 520.167 234.014 519.995 231.687C519.564 225.224 517.838 224.621 500.156 224.535C487.563 224.449 485.665 224.621 485.665 225.828Z" fill="#917440"/>
<path d="M572.783 237.719C572.783 238.495 571.058 239.012 567.091 239.356C563.64 239.615 561.053 240.218 560.621 240.907C560.19 241.597 559.931 261.071 560.104 284.337L560.276 326.561H565.02H569.764L570.023 306.052L570.196 285.63H574.077H577.959L578.131 306.052L578.39 326.561H582.099H585.894L585.981 306.311L586.153 286.061H593.485H600.817V307.603V329.146L579.253 329.577L557.689 330.007V333.454V336.901L580.546 337.418C593.14 337.677 604.439 338.194 605.647 338.538C610.305 339.917 613.755 335.005 610.305 332.162C609.183 331.214 609.011 324.665 608.838 285.285L608.58 239.529L602.369 239.27C597.539 239.098 596.073 238.753 596.073 237.805C596.073 236.771 594.089 236.513 584.428 236.513C575.199 236.513 572.783 236.771 572.783 237.719ZM598.919 248.663L602.11 249.524V259.434C602.11 270.291 602.157 267.858 602.05 270.083C596.598 270.266 591.212 270.138 587.533 269.947C586.326 269.688 586.153 268.223 586.153 259.348V249.007L588.741 248.49C592.795 247.629 595.383 247.629 598.919 248.663H598.919ZM579.77 255.212C580.029 263.829 579.511 268.827 578.476 269.516C577.959 269.861 575.975 270.033 574.077 269.947L570.627 269.688L570.368 261.071L570.11 252.368L572.956 251.506C574.509 250.989 576.665 250.472 577.786 250.386C579.511 250.3 579.684 250.645 579.77 255.212Z" fill="#917440"/>
<path d="M973.874 237.805C973.874 238.667 972.58 239.098 968.957 239.27L963.954 239.529L963.695 285.285C963.523 324.665 963.35 331.214 962.229 332.162C961.539 332.765 960.935 334.144 960.935 335.178C960.935 338.021 963.005 339.4 966.283 338.624C967.836 338.28 979.394 337.763 991.987 337.418L1014.85 336.901L1015.1 333.282L1015.36 329.577L993.54 329.404L971.717 329.146V307.603V286.061H978.618H985.518L985.259 306.052L984.914 326.044L987.071 326.561C988.192 326.905 990.349 326.991 991.642 326.819L994.144 326.561L994.403 306.052L994.575 285.544L998.284 285.802L1001.91 286.061L1002.34 306.311L1002.77 326.561L1007.77 326.819L1012.69 327.078V283.045V239.098H1006.22C1001.04 239.098 999.75 238.839 999.75 237.805C999.75 236.685 997.767 236.513 986.812 236.513C976.116 236.513 973.874 236.685 973.874 237.805ZM986.036 249.094C986.467 249.352 986.812 254.005 986.812 259.434C986.812 266.247 986.944 266.805 987.097 270.383C980.761 270.483 975.051 272.081 970.546 270.171C969.425 267.327 969.647 250.386 970.855 249.438C971.286 249.094 972.666 248.577 973.874 248.318C976.289 247.801 984.914 248.318 986.036 249.094ZM998.457 251.506L1001.91 252.713V261.244V269.688L998.198 269.947C992.591 270.378 991.987 269.43 991.987 260.64C991.987 249.611 992.16 249.352 998.457 251.506Z" fill="#917440"/>
<path d="M612.202 239.615C611.857 239.959 611.599 260.123 611.599 284.337C611.599 321.907 611.771 328.629 612.892 329.577C613.583 330.18 614.186 332.506 614.359 335.005L614.618 339.486H620.656C626.348 339.486 626.693 339.4 626.952 337.418C627.125 336.298 628.419 334.402 629.799 333.282L632.3 331.128V292.092C632.3 258.831 632.128 252.885 631.092 252.282C630.23 251.765 629.712 249.697 629.54 245.561L629.281 239.529L621.087 239.27C616.515 239.184 612.547 239.27 612.202 239.615Z" fill="#917440"/>
<path d="M645.411 431.774C645.69 422.469 647.303 420.228 647.567 428.672C647.648 431.258 647.74 433.929 647.74 434.446C647.826 435.049 648.43 435.566 649.12 435.566C650.241 435.566 650.414 431.257 650.414 402.046C650.414 373.092 650.241 368.439 649.12 368.008C648.43 367.75 647.826 366.543 647.826 365.337C647.826 363.958 647.309 363.183 646.532 363.183C645.411 363.183 645.238 366.974 645.238 392.395C645.238 419.194 644.807 424.622 643.082 421.779M643.082 421.779C642.823 421.348 642.565 404.803 642.565 385.07C642.651 354.738 642.823 348.965 643.945 347.414C644.635 346.38 645.238 343.967 645.238 342.071C645.238 339.228 644.721 338.021 642.651 336.039L640.063 333.54V291.575C640.063 254.436 640.236 249.524 641.443 249.093C642.392 248.749 642.651 247.542 642.478 244.096L642.22 239.529L637.907 239.27C635.492 239.098 633.249 239.27 632.904 239.615C631.696 240.821 632.214 248.576 633.594 249.093C634.715 249.524 634.888 255.125 634.888 291.834V333.971L632.386 336.298C631.006 337.59 629.712 339.4 629.54 340.348C629.367 341.64 628.419 342.157 625.831 342.502L622.381 342.933L622.122 347.414C621.949 349.913 621.346 352.239 620.656 352.842C618.672 354.48 618.758 423.674 620.656 425.225C621.604 426.001 621.949 428.069 621.949 432.722C621.949 437.031 622.294 439.185 623.071 439.444C623.588 439.616 628.85 439.961 634.629 440.133L645.152 440.391L645.411 431.774" fill="#917440"/>
<path d="M645.583 240.132C645.238 240.649 645.842 241.769 646.964 242.717C648.775 244.182 651.19 244.268 682.76 244.268C714.329 244.268 716.745 244.182 718.556 242.717C719.677 241.769 720.281 240.649 719.936 240.132C719.074 238.667 646.446 238.667 645.583 240.132Z" fill="#917440"/>
<path d="M723.3 240.132C723.041 240.735 722.955 259.262 723.041 281.321L723.3 321.39H728.044H732.788L732.961 287.353C733.047 268.654 733.133 253.057 733.22 252.626C733.22 252.282 733.823 252.023 734.513 252.023C735.635 252.023 735.807 250.903 735.635 245.733L735.376 239.529L729.511 239.27C725.37 239.098 723.559 239.356 723.3 240.132Z" fill="#917440"/>
<path d="M837.331 239.615C836.985 239.959 836.727 242.717 836.727 245.647C836.727 249.524 837.072 251.248 838.021 251.765C839.142 252.368 839.314 257.538 839.487 286.922L839.746 321.39H844.49H849.234V280.459V239.529L843.627 239.27C840.522 239.098 837.676 239.27 837.331 239.615Z" fill="#917440"/>
<path d="M852.857 239.701C851.908 240.563 852.166 241.424 853.633 242.889C854.754 244.096 859.239 244.268 889.343 244.268C921.344 244.268 923.759 244.182 925.57 242.717C929.797 239.27 927.985 239.098 889.86 239.098C869.849 239.098 853.115 239.356 852.857 239.701Z" fill="#917440"/>
<path d="M930.228 240.045C929.193 241.855 929.797 248.059 931.177 249.093C932.298 249.955 932.471 255.728 932.471 292.006V333.971L929.883 336.212C927.64 338.107 927.295 338.883 927.295 342.933C927.295 345.863 927.727 347.844 928.589 348.534C929.711 349.482 929.883 354.566 929.883 385.156C929.883 415.747 929.711 420.831 928.589 421.779C927.554 422.64 927.295 424.881 927.295 431.688V440.478L937.474 440.564C943.08 440.564 948.169 440.305 948.773 439.96C949.377 439.53 949.981 436.6 950.239 432.636C950.498 428.328 951.102 425.484 951.878 424.622C953.776 422.726 953.776 354.135 951.965 353.101C951.188 352.67 950.585 350.688 950.412 347.672L950.153 342.933L946.53 342.674C943.253 342.416 942.821 342.157 942.821 340.348C942.821 339.141 941.786 337.418 940.234 336.212L937.646 333.971V292.265C937.646 255.642 937.819 250.386 938.94 249.438C939.975 248.576 940.234 247.025 940.061 243.923L939.803 239.528L935.317 239.27C932.557 239.098 930.659 239.356 930.228 240.045Z" fill="#917440"/>
<path d="M943.425 239.615C943.08 239.959 942.822 242.631 942.822 245.561C942.822 249.266 942.39 251.248 941.528 252.023C940.406 252.971 940.234 258.486 940.234 292.092V331.128L942.735 333.282C944.115 334.402 945.409 336.298 945.582 337.418C945.84 339.4 946.185 339.486 951.878 339.486H957.916L958.175 334.833C958.348 331.989 958.951 329.749 959.728 329.232C960.763 328.456 960.935 321.907 960.763 283.906L960.504 239.529L952.31 239.27C947.738 239.184 943.77 239.27 943.425 239.615Z" fill="#917440"/>
<path d="M521.634 242.2C520.599 243.234 520.944 244.957 522.583 246.508C523.963 247.887 524.049 251.334 524.308 289.507C524.48 330.266 524.48 331.041 522.755 332.592C521.806 333.454 521.03 334.488 521.03 334.919C521.03 335.264 519.909 337.246 518.442 339.228C515.337 343.536 515.251 344.225 518.011 346.811L520.081 348.793V394.032C520.081 418.849 520.254 439.444 520.512 439.616C521.202 440.305 534.4 440.219 535.521 439.53C536.125 439.185 536.556 436.686 536.556 433.67C536.556 429.362 536.987 427.897 539.144 424.622L541.731 420.831V388.431C541.731 361.632 541.559 355.772 540.524 354.652C539.834 353.877 538.971 350.947 538.54 348.103C537.936 343.622 537.591 342.933 535.866 342.674C534.055 342.416 533.623 341.382 533.882 337.763C533.968 336.815 532.847 334.833 531.381 333.454L528.793 330.955V290.628C528.793 255.298 528.965 249.955 530.173 248.146C530.863 247.025 531.381 245.216 531.208 244.096C530.949 242.372 530.432 242.114 526.637 241.855C524.221 241.683 521.979 241.855 521.634 242.2Z" fill="#917440"/>
<path d="M535.003 242.372C534.4 242.803 534.141 243.751 534.486 244.526C534.745 245.302 534.4 247.111 533.623 248.663C532.502 250.989 532.243 256.676 532.243 290.283L532.157 329.146L534.313 330.955C535.78 332.248 536.556 333.971 536.728 336.125L536.987 339.486L543.456 339.227C546.993 339.055 550.961 338.366 552.255 337.676C554.238 336.642 554.497 336.039 554.411 332.506C554.238 329.663 554.67 328.284 555.791 327.508C557.171 326.388 557.257 323.631 557.085 284.251L556.826 242.114L546.475 241.855C540.782 241.769 535.607 242.027 535.003 242.372Z" fill="#917440"/>
<path d="M738.999 242.2C738.654 242.545 738.395 244.871 738.395 247.37C738.395 250.558 738.05 252.023 737.101 252.368C735.98 252.799 735.807 257.194 735.98 287.095L736.239 321.39H742.276H748.314V283.045V244.699L744.95 244.44C743.053 244.268 741.069 243.579 740.551 242.889C740.034 242.2 739.344 241.855 738.999 242.2Z" fill="#917440"/>
<path d="M1016.66 242.372C1015.71 243.923 1015.97 325.957 1016.92 327.767C1017.43 328.715 1017.86 331.041 1017.86 332.937C1017.86 337.935 1020.37 339.4 1028.99 339.486H1035.55L1035.81 336.212C1035.98 334.316 1036.93 332.076 1038.22 330.697L1040.29 328.456V306.569C1040.3 292.724 1040.24 273.894 1039.51 260.123C1039.08 259.693 1038.48 256.418 1038.22 252.885C1037.36 240.821 1038.74 242.114 1027.18 241.855C1021.66 241.769 1016.92 241.941 1016.66 242.372Z" fill="#917440"/>
<path d="M1040.72 243.32C1040.2 245.043 1041.41 248.921 1042.71 249.783C1043.14 250.041 1043.57 267.103 1043.65 290.541L1043.83 330.869L1041.24 332.851C1039.17 334.316 1038.65 335.522 1038.39 338.366C1038.13 341.468 1037.79 342.071 1035.98 342.502C1034.08 342.933 1033.82 343.536 1033.56 347.672C1033.39 350.171 1032.7 353.101 1032.01 354.049C1030.11 356.72 1030.2 421.951 1032.1 423.502C1032.79 424.105 1033.39 425.053 1033.39 425.656C1033.39 426.26 1033.99 427.207 1034.68 427.811C1035.46 428.414 1035.98 430.827 1036.15 434.532L1036.41 440.305L1043.14 440.564C1047.45 440.736 1050.38 440.478 1051.16 439.788C1052.19 438.927 1052.37 431.43 1052.37 393.86V348.793L1054.52 346.811C1055.73 345.69 1056.68 344.398 1056.68 343.967C1056.68 342.933 1050.64 333.627 1049 332.334C1047.88 331.386 1047.71 328.025 1047.97 306.828C1046.83 292.094 1047.94 276.448 1048.05 262.795C1048.05 251.937 1048.31 248.576 1049.35 247.198C1050.04 246.336 1050.64 244.699 1050.64 243.579C1050.64 241.855 1050.21 241.683 1045.98 241.683C1042.1 241.683 1041.15 241.941 1040.72 243.32Z" fill="#917440"/>
<path d="M831.551 243.32C831.551 243.837 829.912 244.268 827.929 244.44L824.22 244.699V283.044V321.39H830.257H836.295L836.554 287.094C836.727 257.193 836.554 252.799 835.433 252.368C834.484 251.937 834.139 250.558 834.139 247.198C834.139 243.665 833.794 242.544 832.845 242.544C832.155 242.544 831.551 242.889 831.551 243.32Z" fill="#917440"/>
<path d="M751.851 245.044C751.592 245.474 751.937 246.25 752.627 246.853C753.317 247.456 753.921 248.749 753.921 249.783C753.921 250.731 754.266 252.023 754.611 252.54C755.56 254.091 759.873 254.522 760.908 253.23C761.425 252.54 762.46 252.023 763.15 252.023C764.099 252.023 764.272 253.488 764.099 259.52C763.84 266.931 763.754 267.103 761.684 267.103C760.39 267.103 759.441 267.706 759.269 268.654C759.096 269.602 758.148 270.119 756.422 270.119H753.921V262.278C753.921 256.418 753.662 254.522 752.886 254.781C752.023 255.125 751.765 257.883 751.765 265.035V274.858H786.267H820.769V265.035C820.769 257.883 820.511 255.125 819.734 254.781C818.872 254.522 818.613 256.418 818.613 262.278V270.119H816.112C814.386 270.119 813.524 269.602 813.179 268.396C812.834 267.189 812.144 266.758 810.677 266.845C808.78 267.103 808.694 266.931 808.435 259.52C808.262 253.057 808.349 252.023 809.642 252.023C810.419 252.023 811.195 252.799 811.454 253.747C811.799 254.953 812.23 255.212 812.92 254.695C813.438 254.264 814.818 253.747 816.025 253.574C817.664 253.402 818.268 252.713 818.44 250.731C818.613 249.266 819.303 247.542 819.993 246.767C820.683 245.991 820.942 245.13 820.597 244.871C819.734 244.01 752.368 244.182 751.851 245.044ZM770.137 261.33C770.396 269.688 770.31 270.119 768.584 270.119C766.946 270.119 766.859 269.602 766.859 260.985C766.859 252.799 767.032 251.937 768.412 252.196C769.706 252.454 769.878 253.661 770.137 261.33ZM805.675 261.071C805.675 269.344 805.502 270.119 804.036 270.119C801.879 270.119 801.362 268.482 801.362 261.933C801.362 255.642 802.483 252.023 804.381 252.023C805.416 252.023 805.675 253.574 805.675 261.071Z" fill="#917440"/>
<path d="M496.016 248.146C496.016 249.093 497.482 249.438 502.312 249.61L508.523 249.869L508.954 295.97C509.385 340.865 509.472 342.071 511.024 342.071C512.232 342.071 512.922 341.209 513.439 339.314C513.871 337.849 515.682 335.005 517.58 333.109L521.03 329.663V289.68C521.03 252.023 520.944 249.61 519.477 248.318C517.235 246.25 496.016 246.164 496.016 248.146Z" fill="#917440"/>
<path d="M645.67 247.887C645.411 248.49 645.325 267.017 645.411 289.076L645.67 329.146H647.826H649.983L650.241 291.231C650.414 257.883 650.586 253.23 651.794 252.282C652.57 251.765 653.001 250.386 652.829 249.266C652.656 247.629 651.966 247.198 649.292 247.025C647.222 246.853 645.928 247.112 645.67 247.887Z" fill="#917440"/>
<path d="M656.193 247.37C655.848 247.715 655.589 249.093 655.589 250.386C655.589 251.679 655.244 253.057 654.727 253.316C654.209 253.66 653.864 267.275 653.864 291.317C653.864 315.703 654.123 328.715 654.727 328.715C655.244 328.715 655.589 321.132 655.589 307.603V286.491L657.659 285.974C658.781 285.716 660.678 285.63 661.713 285.802L663.783 286.06L664.042 307.345L664.215 328.715L666.285 329.232C667.406 329.49 669.304 329.576 670.339 329.404L672.409 329.146L672.84 307.603L673.272 286.06H680.172H687.073L687.504 307.603L687.935 329.146H692.248H696.561L696.82 292.179C696.992 261.416 696.82 254.867 695.784 253.316C695.094 252.282 694.404 250.558 694.232 249.352L693.973 247.284L675.342 247.025C665.164 246.939 656.538 247.112 656.193 247.37ZM689.056 260.899C689.131 264.765 689.263 267.674 689.056 270.628C680.134 270.363 677.564 270.299 673.358 269.947C671.719 269.688 671.547 269.085 671.288 262.019C671.116 257.797 671.288 253.747 671.461 253.143C671.806 252.196 673.876 252.023 680.345 252.196L688.798 252.454L689.056 260.899ZM664.991 254.091C666.199 255.47 666.112 267.534 664.905 268.999C663.956 270.205 660.678 270.464 657.573 269.602C655.675 269.085 655.589 268.568 655.589 261.933C655.589 255.47 655.762 254.781 657.573 253.919C660.247 252.626 663.87 252.713 664.991 254.091Z" fill="#917440"/>
<path d="M697.337 248.146C696.992 248.921 697.423 250.214 698.2 251.075C699.407 252.368 699.58 256.935 699.752 289.594L700.011 326.561L701.995 326.819C703.116 326.991 704.669 326.561 705.531 325.785C706.48 324.923 709.154 324.406 713.381 324.234L719.85 323.975V285.63V247.284L708.809 247.025C699.493 246.853 697.768 247.025 697.337 248.146Z" fill="#917440"/>
<path d="M852.857 247.456C852.511 247.715 852.253 265.207 852.253 286.233V324.406H859.067C864.07 324.406 866.14 324.751 866.916 325.699C867.52 326.388 869.073 326.991 870.453 326.991H872.954V289.852C872.868 256.332 873.04 252.54 874.334 251.075C875.111 250.214 875.542 248.921 875.283 248.146C874.852 247.112 872.868 246.853 864.07 246.853C858.204 246.853 853.115 247.112 852.857 247.456Z" fill="#917440"/>
<path d="M878.733 247.456C878.388 247.715 878.13 248.835 878.13 249.869C878.13 250.989 877.526 252.282 876.836 252.885C875.714 253.833 875.542 258.917 875.714 291.575L875.973 329.146L878.475 329.404C879.768 329.576 881.839 329.49 882.96 329.232L885.03 328.715L885.203 307.345L885.461 286.06L892.103 285.802L898.831 285.543L899.004 307.345L899.262 329.146H903.144H907.025L907.457 307.603L907.888 286.06L910.734 285.802C912.287 285.63 912.863 287.816 914.875 286.577C915.377 286.268 915.816 329.05 916.187 328.788C916.558 328.527 916.862 328.202 917.096 327.638C917.329 327.075 917.493 283.293 917.584 282.077C917.675 280.861 917.693 279.231 917.635 277.013C917.435 269.342 917.29 268.826 915.651 269.085C906.508 270.636 906.594 270.722 906.594 261.416C906.594 254.35 907.37 252.885 910.907 252.885C914.443 252.885 915.996 255.211 915.565 259.692C915.392 261.76 915.743 269.357 916.389 269.887C917.305 270.13 916.858 263.311 916.945 257.107C916.945 249.524 916.686 247.801 915.565 247.37C913.753 246.681 879.423 246.681 878.733 247.456ZM900.987 261.071C900.987 269.171 901.024 267.972 901.016 270.192C892.714 270.193 888.722 270.181 885.548 269.947C883.909 269.688 883.736 269.085 883.477 262.019C883.305 257.797 883.477 253.747 883.65 253.143C883.995 252.196 886.065 252.023 892.534 252.196L900.987 252.454V261.071Z" fill="#917440"/>
<path d="M920.136 247.37C919.274 248.318 919.36 251.506 920.395 252.54C920.913 253.057 921.344 267.706 921.43 291.231L921.689 329.146H924.277H926.864V288.215V247.284L923.845 247.025C922.12 246.853 920.481 247.025 920.136 247.37Z" fill="#917440"/>
<path d="M1051.16 253.919C1050.9 257.883 1050.64 276.237 1050.73 294.85C1050.81 332.248 1050.38 329.232 1056.51 335.695C1057.63 336.815 1058.75 338.883 1059.01 340.175C1059.35 341.985 1059.96 342.502 1061.16 342.33C1062.89 342.071 1062.89 341.123 1062.8 296.315C1062.63 254.781 1062.8 250.472 1064.01 249.955C1064.79 249.697 1068.15 249.438 1071.43 249.438C1076.17 249.438 1077.38 249.18 1077.38 248.146C1077.38 247.025 1075.4 246.853 1064.53 246.853H1051.68L1051.16 253.919Z" fill="#917440"/>
<path d="M495.584 252.885C495.326 253.402 496.188 255.298 497.655 257.107L500.328 260.468L500.501 301.227L500.76 342.071L503.175 342.33L505.504 342.588L505.331 297.521L505.073 252.454L500.587 252.196C498.086 252.023 495.929 252.368 495.584 252.885Z" fill="#917440"/>
<path d="M1067.12 253.23C1066.43 254.005 1066.25 266.586 1066.34 298.21L1066.6 342.071H1069.19H1071.77L1072.03 301.226L1072.21 260.468L1074.79 257.193C1076.26 255.384 1077.38 253.488 1077.38 252.971C1077.38 251.592 1068.32 251.765 1067.12 253.23Z" fill="#917440"/>
<path d="M1082.99 256.073C1082.04 256.246 1080.4 256.59 1079.36 256.849C1078.24 257.021 1077.38 257.624 1077.38 258.141C1077.38 258.658 1076.78 259.606 1076.09 260.296C1074.97 261.416 1074.79 267.275 1074.79 302.088C1074.79 337.418 1074.97 342.502 1076.09 342.502C1077.38 342.502 1077.64 332.765 1077.81 275.375C1077.81 267.361 1077.98 266.327 1079.54 265.466C1086.44 261.588 1089.63 257.193 1086.35 255.987C1085.58 255.728 1084.97 255.556 1084.89 255.556C1084.8 255.642 1083.94 255.815 1082.99 256.073Z" fill="#917440"/>
<path d="M485.061 257.797C484.457 259.262 488.425 263.225 492.565 265.207C494.549 266.241 494.722 266.672 494.549 272.273C494.377 275.634 494.377 279.425 494.377 280.89C494.808 330.783 495.153 342.071 496.188 342.071C497.051 342.071 497.396 334.144 497.568 304.156C497.655 283.303 497.568 265.035 497.309 263.57C496.533 259.175 493.255 256.332 489.115 256.332C486.614 256.332 485.492 256.763 485.061 257.797Z" fill="#917440"/>
<path d="M752.11 278.822C751.592 279.081 751.42 288.043 751.506 300.365C751.765 320.96 751.765 321.39 753.576 321.649C754.525 321.821 755.905 321.304 756.509 320.529C757.975 318.805 760.563 318.891 761.598 320.701C762.374 322.166 762.46 322.166 764.013 320.701C766.083 318.891 768.067 318.805 769.447 320.529C770.31 321.563 773.329 321.821 786.439 321.821C799.723 321.821 802.397 321.649 802.742 320.529C803.087 319.839 804.208 319.236 805.33 319.236C806.537 319.236 807.658 319.839 807.917 320.529C808.262 321.218 808.952 321.821 809.556 321.821C810.16 321.821 810.85 321.218 811.195 320.529C811.799 318.805 814.645 318.891 816.025 320.529C816.629 321.304 818.009 321.821 818.958 321.649C820.769 321.39 820.769 320.96 821.028 300.796C821.114 287.095 820.942 279.856 820.338 279.253C819.389 278.305 753.662 277.874 752.11 278.822ZM761.339 288.732C762.029 291.403 760.131 293.73 757.975 292.868C756.509 292.351 755.905 288.215 757.112 287.095C758.493 285.716 760.821 286.578 761.339 288.732ZM768.234 289.594C768.406 291.662 768.147 292.437 766.767 292.782C764.697 293.299 763.231 291.92 763.231 289.507C763.231 287.095 764.007 286.319 766.25 286.664C767.457 286.836 768.061 287.698 768.234 289.594ZM807.745 287.87C809.125 291.489 807.4 293.988 804.381 292.868C803.087 292.351 802.569 288.129 803.691 287.095C804.726 285.974 807.227 286.491 807.745 287.87ZM815.853 289.163C816.025 290.455 815.508 291.834 814.731 292.523C812.661 294.247 810.419 291.748 811.195 288.646C811.971 285.544 815.508 285.888 815.853 289.163ZM761.511 301.657C761.77 307.172 760.476 309.585 757.802 308.551C756.854 308.206 756.509 306.741 756.509 302.605C756.509 296.573 756.854 295.798 759.528 296.143C760.994 296.401 761.253 297.09 761.511 301.657ZM769.016 302.433C769.016 308.293 768.929 308.465 766.859 308.465C764.875 308.465 764.703 308.12 764.444 303.381C764.099 297.09 764.617 295.798 767.032 296.143C768.843 296.401 769.016 296.832 769.016 302.433ZM807.831 302.433C807.831 308.293 807.745 308.465 805.675 308.465C803.691 308.465 803.518 308.12 803.259 303.381C802.914 297.09 803.432 295.798 805.847 296.143C807.658 296.401 807.831 296.832 807.831 302.433ZM815.594 302.433C815.594 308.293 815.508 308.465 813.438 308.465C811.454 308.465 811.281 308.12 811.022 303.381C810.677 297.09 811.195 295.798 813.61 296.143C815.421 296.401 815.594 296.832 815.594 302.433ZM761.425 312.86C762.029 314.583 759.528 316.737 757.716 316.048C756.509 315.617 756.077 313.032 757.112 312.084C758.148 310.964 760.908 311.481 761.425 312.86ZM769.275 313.721C769.533 315.617 767.549 316.737 765.393 316.048C764.185 315.617 763.927 313.032 764.875 311.998C766.083 310.791 769.016 311.912 769.275 313.721ZM807.917 312.773C808.694 314.669 806.796 316.565 804.812 316.048C803.691 315.789 803.087 314.841 803.087 313.549C803.087 311.912 803.518 311.481 805.243 311.481C806.451 311.481 807.658 312.084 807.917 312.773ZM815.853 313.721C816.198 316.048 813.61 317.168 811.885 315.445C810.074 313.721 811.195 311.308 813.61 311.653C814.818 311.826 815.68 312.601 815.853 313.721Z" fill="#917440"/>
<path d="M722.869 325.699C722.093 326.647 719.936 326.991 714.675 326.991C709.413 326.991 707.256 327.336 706.48 328.284C705.876 328.973 704.669 329.577 703.806 329.577C702.426 329.577 702.167 330.266 702.167 334.23C702.167 337.246 701.736 339.228 700.874 339.917C699.148 341.382 699.148 347.672 700.874 347.672C701.736 347.672 702.167 348.965 702.34 352.584L702.599 357.582L708.55 357.84C713.381 358.013 714.588 357.84 715.537 356.548C716.658 355.083 720.281 354.997 785.749 354.997C849.665 355.083 854.84 355.169 856.393 356.548C857.601 357.668 859.585 358.013 864.156 358.013H870.367V353.273C870.367 349.827 870.712 348.362 871.66 348.017C872.523 347.672 872.954 346.294 872.954 343.795C872.954 341.296 872.523 339.917 871.66 339.572C870.712 339.228 870.367 337.763 870.367 334.316C870.367 330.266 870.108 329.577 868.728 329.577C867.865 329.577 866.658 328.973 866.054 328.284C865.277 327.336 863.207 326.991 858.377 326.991C853.978 326.905 851.304 326.561 850.183 325.699C847.595 323.717 724.508 323.803 722.869 325.699Z" fill="#917440"/>
<path d="M645.842 332.679C645.497 333.023 645.756 333.885 646.36 334.574C646.877 335.264 647.567 338.021 647.826 340.692L648.257 345.518L668.528 345.777C693.024 346.121 696.129 345.776 696.129 343.019C696.129 341.899 696.906 340.003 697.941 338.711C698.89 337.504 699.58 335.608 699.407 334.574L699.148 332.592L672.754 332.334C658.263 332.248 646.187 332.42 645.842 332.679Z" fill="#917440"/>
<path d="M873.558 332.765C872.609 333.713 872.868 336.47 874.162 338.883C874.852 340.175 875.628 342.243 875.973 343.622L876.404 345.949L900.384 345.776L924.277 345.518L924.535 340.779C924.708 338.193 925.398 335.436 926.088 334.66C926.778 333.971 927.037 333.023 926.692 332.765C926.002 331.989 874.248 331.989 873.558 332.765Z" fill="#917440"/>
<path d="M555.532 340.865C553.893 341.296 550.184 341.985 547.338 342.33L542.163 342.933L541.904 346.638C541.731 348.965 542.163 351.205 542.939 352.412C544.146 354.221 544.319 359.133 544.319 388.517V422.64L541.731 426.777C539.661 430.223 539.144 431.947 539.144 435.911V440.822L544.146 440.564L549.063 440.305L549.236 411.007C549.408 388 549.753 381.193 550.702 379.124C551.392 377.66 552.6 374.988 553.548 373.093C556.023 367.818 560.962 363.526 565.02 360.856C570.208 357.288 573.739 357.668 579.425 357.668C590.637 358.361 592.705 359.396 599.954 365.51C604.607 369.897 605.318 372.685 607.631 376.798C610.909 383.174 611.599 389.982 611.599 415.144C611.599 441.856 611.512 441.339 616.515 439.961C618.758 439.357 618.93 439.013 619.189 434.36C619.362 430.913 619.017 428.758 618.154 427.294C616.946 425.57 616.774 420.314 616.774 388.345C616.774 355.945 616.946 351.205 618.154 350.257C619.017 349.482 619.362 348.017 619.189 346.035L618.93 342.933L611.599 342.674C607.545 342.588 603.146 342.071 601.679 341.554C598.229 340.262 559.5 339.745 555.532 340.865Z" fill="#917440"/>
<path d="M973.874 340.865C971.717 341.296 966.283 341.985 961.798 342.33L953.604 342.933L953.345 346.035C953.172 348.017 953.517 349.482 954.38 350.257C955.587 351.205 955.76 355.945 955.76 387.914C955.76 419.452 955.587 424.708 954.466 426.432C953.431 427.897 953.172 430.137 953.345 434.36L953.604 440.305H957.054H960.504L960.935 413.162C961.28 394.118 961.712 385.329 962.488 383.605C963.005 382.227 962.603 381.531 963.523 379.211C965.987 369.71 975.711 361.796 980.515 359.391C983.914 358.221 986.295 357.754 992.764 357.754C1002.17 357.84 1006.06 359.746 1011.57 363.872C1017.54 368.558 1020.59 374.257 1021.75 380.417C1022.78 382.14 1022.95 388.086 1023.04 411.611V440.736H1028.13H1033.13L1033.56 436.428C1034.08 431.43 1033.56 427.811 1032.36 427.811C1031.92 427.811 1030.8 426.949 1029.85 425.829C1028.39 424.019 1028.3 421.865 1028.21 388.517C1028.21 357.496 1028.39 352.929 1029.51 351.981C1030.46 351.205 1030.8 349.654 1030.63 346.897L1030.37 342.933L1025.63 342.416C1023.04 342.071 1019.5 341.468 1017.86 340.865C1014.24 339.745 979.739 339.745 973.874 340.865Z" fill="#917440"/>
<path d="M1059.96 346.552C1059.44 347.155 1058.58 347.672 1057.97 347.672C1057.37 347.672 1056.68 348.534 1056.33 349.568C1056.08 350.688 1055.82 371.197 1055.82 395.152C1055.82 431.43 1055.99 439.013 1057.02 439.788C1057.8 440.478 1061.42 440.736 1067.55 440.564L1076.95 440.305L1077.38 395.928C1077.64 371.541 1077.9 351.464 1078.07 351.378C1078.16 351.291 1079.11 351.119 1080.23 350.947C1082.38 350.688 1083.42 347.069 1081.52 346.38C1080.92 346.207 1076 345.863 1070.65 345.777C1063.58 345.604 1060.56 345.863 1059.96 346.552Z" fill="#917440"/>
<path d="M490.323 347.241C489.546 349.223 490.582 351.119 492.565 351.119C493.514 351.119 494.377 351.205 494.463 351.291C494.636 351.464 494.894 371.455 495.153 395.841L495.584 440.133H505.504L515.423 440.047L515.682 394.549L515.855 348.965L513.957 347.5C511.197 345.432 491.099 345.173 490.323 347.241Z" fill="#917440"/>
<path d="M873.558 348.189C873.213 348.534 872.954 351.464 872.954 354.738V360.598L899.952 360.425L926.864 360.167L927.123 355.6C927.382 351.464 927.209 351.033 925.139 350.257C923.845 349.74 912.891 349.396 899.348 349.396C884.599 349.396 875.542 349.051 875.024 348.534C874.507 348.017 873.903 347.931 873.558 348.189Z" fill="#917440"/>
<path d="M694.404 349.31C692.765 349.654 682.07 349.74 670.684 349.568C656.969 349.31 649.206 349.568 647.567 350.171C645.325 351.033 645.152 351.378 645.411 355.6L645.67 360.167H672.409H699.148L699.407 356.375C699.752 352.239 699.062 348.448 698.027 348.62C697.682 348.706 696.043 349.051 694.404 349.31Z" fill="#917440"/>
<path d="M718.297 358.53C717.262 359.564 717.607 362.063 718.987 363.183C720.971 364.82 720.971 431.344 718.901 432.981C718.038 433.756 717.693 435.221 717.866 437.203C718.125 440.219 718.211 440.305 721.575 440.305C724.939 440.305 725.025 440.219 725.284 437.203C725.457 435.221 725.111 433.756 724.249 432.981C723.041 432.033 722.869 427.552 722.869 398.082C722.869 368.612 723.041 364.131 724.163 363.183C724.939 362.58 725.457 361.201 725.284 360.253C725.112 358.874 724.335 358.357 722.006 358.185C720.281 358.013 718.642 358.185 718.297 358.53Z" fill="#917440"/>
<path d="M728.648 358.53C728.303 358.874 728.044 360.425 728.044 361.89C728.044 363.441 727.44 365.165 726.75 365.768C725.629 366.716 725.456 371.369 725.456 397.823V428.845L727.872 431.344C729.166 432.808 730.373 435.135 730.632 437.031L731.063 440.133H741.414C752.886 440.047 753.921 439.53 753.921 434.187C753.921 432.722 754.525 430.999 755.215 430.396C757.112 428.845 757.199 367.405 755.301 365.768C754.611 365.251 753.921 363.355 753.748 361.632L753.49 358.444L741.328 358.185C734.686 358.099 728.993 358.271 728.648 358.53Z" fill="#917440"/>
<path d="M757.112 358.53C756.077 359.564 756.422 362.063 757.802 363.183C759.786 364.82 759.786 431.344 757.716 432.981C756.854 433.756 756.509 435.221 756.681 437.203C756.94 440.219 757.026 440.305 760.39 440.305C763.754 440.305 763.84 440.219 764.099 437.203C764.272 435.221 763.927 433.756 763.064 432.981C761.857 432.033 761.684 427.552 761.684 398.082C761.684 368.612 761.857 364.131 762.978 363.183C763.754 362.58 764.272 361.201 764.099 360.253C763.927 358.874 763.15 358.357 760.821 358.185C759.096 358.013 757.457 358.185 757.112 358.53Z" fill="#917440"/>
<path d="M767.463 358.53C767.118 358.874 766.859 360.598 766.859 362.407C766.859 364.389 766.428 365.768 765.566 366.113C764.444 366.544 764.272 370.852 764.272 397.91C764.272 424.795 764.444 429.448 765.566 430.396C766.256 430.999 766.859 432.895 766.859 434.704C766.859 436.514 767.463 438.41 768.153 439.013C769.016 439.702 774.536 440.047 787.302 440.133H805.243L805.502 435.48C805.675 432.55 806.278 430.568 807.055 430.137C808.866 429.103 808.866 367.319 807.055 365.768C806.365 365.251 805.675 363.355 805.502 361.632L805.243 358.444L786.612 358.185C776.434 358.099 767.808 358.271 767.463 358.53Z" fill="#917440"/>
<path d="M808.866 358.53C807.831 359.564 808.176 362.063 809.556 363.183C811.54 364.82 811.54 431.344 809.47 432.981C808.607 433.756 808.262 435.221 808.435 437.203C808.694 440.219 808.78 440.305 812.144 440.305C815.508 440.305 815.594 440.219 815.853 437.203C816.025 435.221 815.68 433.756 814.818 432.981C813.61 432.033 813.438 427.552 813.438 398.082C813.438 368.612 813.61 364.131 814.731 363.183C815.508 362.58 816.025 361.201 815.853 360.253C815.68 358.874 814.904 358.357 812.575 358.185C810.85 358.013 809.211 358.185 808.866 358.53Z" fill="#917440"/>
<path d="M819.217 358.53C818.872 358.874 818.613 360.425 818.613 361.89C818.613 363.441 818.009 365.165 817.319 365.768C815.421 367.319 815.335 428.758 817.319 430.396C818.009 430.913 818.613 433.325 818.785 435.824L819.044 440.219H831.551H844.058L844.317 435.824C844.49 433.325 845.094 430.913 845.784 430.396C847.681 428.845 847.681 367.319 845.87 365.768C845.18 365.251 844.49 363.355 844.317 361.632L844.058 358.444L831.896 358.185C825.255 358.099 819.562 358.271 819.217 358.53Z" fill="#917440"/>
<path d="M847.681 358.616C846.646 359.564 846.991 362.063 848.371 363.183C850.355 364.82 850.355 431.344 848.285 432.981C847.422 433.756 847.077 435.221 847.25 437.203C847.509 440.219 847.681 440.305 851.218 440.564L854.84 440.822V437.462C854.84 435.48 854.323 433.584 853.547 432.981C852.425 432.033 852.253 427.121 852.253 398.082C852.253 369.042 852.425 364.131 853.547 363.183C854.237 362.58 854.84 361.201 854.84 360.081C854.84 358.271 854.409 358.013 851.563 358.013C849.751 358.013 847.94 358.271 847.681 358.616Z" fill="#917440"/>
<path d="M568.557 362.493C561.221 366.801 556.512 372.54 553.893 379.9C552.168 385.07 552.082 386.621 552.255 412.817L552.513 440.305H555.446C560.708 440.305 560.708 440.478 560.708 413.765C560.708 387.483 560.966 385.846 565.452 379.9C568.729 375.505 570.627 374.213 575.371 372.92C583.479 370.68 591.673 374.816 596.331 383.433C598.143 386.707 598.229 388.258 598.66 413.592L599.091 440.219L602.369 440.305C604.094 440.391 605.906 440.047 606.423 439.444C607.372 438.323 607.717 392.567 606.855 385.587C605.499 378.144 600.961 369.555 595.9 365.596C589.862 361.373 587.361 360.598 579.684 360.684C574.25 360.684 571.317 361.201 568.557 362.493Z" fill="#917440"/>
<path d="M702.512 361.546C701.477 363.355 701.995 367.75 703.375 368.525C704.583 369.215 704.755 373.265 704.755 402.046C704.755 430.309 704.583 434.79 703.461 435.221C702.685 435.566 702.167 436.858 702.167 438.237C702.167 440.65 702.34 440.736 706.049 440.736C709.758 440.736 709.93 440.65 709.93 438.237C709.93 436.858 709.413 435.566 708.637 435.221C707.515 434.79 707.343 430.309 707.343 401.959C707.343 373.609 707.515 369.129 708.637 368.698C709.499 368.353 709.93 366.974 709.93 364.389V360.598H706.566C704.669 360.598 702.857 361.029 702.512 361.546Z" fill="#917440"/>
<path d="M862.172 361.459C861.396 362.752 862.603 368.181 863.984 369.301C865.795 370.766 865.622 434.618 863.811 435.307C863.121 435.566 862.603 436.858 862.603 438.237C862.603 440.65 862.776 440.736 866.485 440.736C870.194 440.736 870.366 440.65 870.366 438.237C870.366 436.858 869.849 435.566 869.073 435.221C867.951 434.79 867.779 430.309 867.779 401.959C867.779 373.609 867.951 369.129 869.073 368.698C869.935 368.353 870.366 366.974 870.366 364.389V360.598H866.571C864.415 360.598 862.431 360.942 862.172 361.459Z" fill="#917440"/>
<path d="M979.739 363.441C973.097 367.147 967.232 375.247 965.593 383.002C965.248 384.639 964.817 398.082 964.644 412.903L964.299 439.788L967.318 440.305C973.874 441.598 973.356 443.407 973.874 413.162C974.391 382.83 974.219 383.433 980.947 376.97C983.534 374.385 985.173 373.523 988.537 373.092C997.422 371.886 1003.63 374.557 1008.29 381.709L1010.53 385.156L1010.96 412.127C1011.48 441.856 1011.22 440.995 1017 440.564L1020.02 440.305V411.869C1020.02 383.433 1019.85 381.192 1016.92 376.108C1016.48 375.419 1015.79 374.04 1015.36 373.092C1014.07 369.99 1007.43 364.131 1003.37 362.321C1000.44 361.029 997.68 360.598 992.074 360.598C985.346 360.684 984.224 360.942 979.739 363.441Z" fill="#917440"/>
<path d="M713.467 364.562C713.381 365.94 712.777 367.922 712.087 368.87C711.052 370.249 710.879 375.678 710.793 402.218C710.793 432.464 710.879 434.101 712.518 436.169L714.157 438.323L714.674 435.824C715.02 434.532 715.796 432.378 716.486 431.085C717.435 429.275 717.693 423.071 717.693 397.737C717.693 370.077 717.521 366.544 716.313 366.027C715.537 365.768 714.588 364.734 714.243 363.7C713.553 362.149 713.467 362.235 713.467 364.562Z" fill="#917440"/>
<path d="M650.414 365.596C650.414 367.061 650.931 368.353 651.708 368.698C652.829 369.129 653.001 373.609 653.001 401.959C653.001 430.309 652.829 434.79 651.708 435.221C650.931 435.566 650.414 436.858 650.414 438.237C650.414 440.65 650.586 440.736 654.295 440.736C658.004 440.736 658.177 440.65 658.177 438.237C658.177 436.858 657.659 435.566 656.883 435.221C655.762 434.79 655.589 430.309 655.589 402.046C655.589 373.006 655.762 369.215 656.969 368.525C657.746 368.095 658.177 366.974 658.004 365.682C657.832 363.958 657.228 363.614 654.123 363.355C650.5 363.097 650.414 363.183 650.414 365.596Z" fill="#917440"/>
<path d="M663.784 363.872C663.266 364.217 662.058 366.026 661.11 367.922C659.298 371.283 659.212 372.489 659.126 402.132L658.953 432.895L661.196 436.428C662.403 438.323 663.697 439.874 664.042 439.874C664.387 439.874 668.355 439.961 672.84 440.047C680.776 440.219 681.035 440.133 681.293 438.323C681.466 437.203 682.156 436.083 682.846 435.824C684.657 435.135 684.657 369.904 682.846 368.353C682.156 367.836 681.466 366.544 681.293 365.509C681.035 363.7 680.517 363.614 672.84 363.441C668.355 363.355 664.215 363.528 663.784 363.872Z" fill="#917440"/>
<path d="M685.434 363.872C685.175 364.389 685.52 365.854 686.21 367.147C687.245 369.215 687.504 375.074 687.504 402.563C687.504 434.446 687.418 435.652 685.779 437.289C682.932 440.133 683.622 440.822 689.056 440.564C693.714 440.305 693.973 440.219 694.232 437.979C694.404 436.255 694.146 435.566 693.197 435.566C691.989 435.566 691.817 431.861 691.817 401.96C691.817 372.058 691.989 368.353 693.197 368.353C694.146 368.353 694.404 367.664 694.232 365.94C693.973 363.786 693.628 363.614 689.919 363.355C687.763 363.183 685.692 363.441 685.434 363.872Z" fill="#917440"/>
<path d="M878.13 365.682C878.13 367.061 878.647 368.353 879.423 368.698C880.545 369.129 880.717 373.609 880.717 402.39C880.717 431.344 880.545 435.566 879.423 435.566C878.561 435.566 878.13 436.428 878.13 438.151C878.13 440.65 878.302 440.736 881.925 440.736C886.583 440.736 887.273 439.874 885.548 436.255C884.34 434.015 884.167 428.931 884.167 401.873C884.167 371.541 884.254 370.076 885.893 367.233C887.963 363.786 887.359 363.183 881.493 363.183C878.388 363.183 878.13 363.355 878.13 365.682Z" fill="#917440"/>
<path d="M891.672 363.786C891.327 364.045 891.068 364.992 891.068 365.854C891.068 366.716 890.378 367.75 889.602 368.267C888.135 369.042 888.049 371.628 887.877 400.925L887.704 432.808L889.774 436.514L891.758 440.305L900.039 440.478L908.405 440.564L910.476 437.203L912.632 433.842V402.132C912.632 375.591 912.459 370.163 911.338 368.698C910.648 367.836 910.044 366.457 910.044 365.682C910.044 364.906 909.441 363.958 908.664 363.7C906.853 363.01 892.362 363.01 891.672 363.786Z" fill="#917440"/>
<path d="M913.926 364.045C913.581 364.562 914.012 366.113 914.702 367.664C916.686 371.541 916.772 433.239 914.875 436.945C913.149 440.133 913.753 440.736 918.325 440.736C921.948 440.736 922.12 440.65 922.12 438.237C922.12 436.858 921.603 435.566 920.826 435.221C919.705 434.79 919.532 430.309 919.532 401.959C919.532 373.609 919.705 369.129 920.826 368.698C921.603 368.353 922.12 367.061 922.12 365.682C922.12 363.269 921.948 363.183 918.325 363.183C916.168 363.183 914.185 363.614 913.926 364.045Z" fill="#917440"/>
<path d="M924.708 365.337C924.708 366.544 924.104 367.75 923.414 368.008C922.293 368.439 922.12 373.092 922.12 402.046C922.12 431.257 922.293 435.566 923.414 435.566C924.449 435.566 924.708 434.273 924.708 428.845C924.708 424.278 925.139 421.606 926.002 420.4C927.899 417.901 927.899 363.183 926.002 363.183C925.225 363.183 924.708 363.958 924.708 365.337Z" fill="#917440"/>
<path d="M855.444 365.51C855.099 365.768 854.84 380.417 854.84 397.996C854.84 423.502 855.099 430.396 856.048 431.688C856.652 432.636 857.428 434.532 857.773 435.997L858.463 438.582L860.102 435.394C861.655 432.464 861.741 430.223 861.482 401.356C861.31 370.594 861.31 370.507 859.326 367.664C857.342 364.906 856.479 364.389 855.444 365.51Z" fill="#917440"/>
<path d="M696.992 368.181C696.302 368.439 695.439 369.042 695.094 369.56C694.749 370.077 694.404 384.812 694.404 402.304V434.101L696.475 435.997L698.458 437.893L699.925 435.221C701.219 432.808 701.305 429.103 701.132 401.356C700.874 374.902 700.701 369.99 699.58 368.956C698.89 368.267 697.682 367.922 696.992 368.181Z" fill="#917440"/>
<path d="M872.782 368.439C871.315 369.215 871.229 371.714 871.229 401.529C871.229 432.291 871.315 433.929 872.954 436.6C873.903 438.151 874.679 439.013 874.679 438.496C874.679 437.979 875.456 436.686 876.404 435.566C878.043 433.67 878.13 432.378 878.13 402.477C878.13 375.678 877.957 371.024 876.749 369.387C875.283 367.233 874.852 367.147 872.782 368.439Z" fill="#917440"/>
</g>
<defs>
<clipPath id="clip0_48_2">
<rect width="602.732" height="440.887" fill="white" transform="translate(485)"/>
</clipPath>
</defs>
</svg>
