<svg width="487" height="512" viewBox="0 0 487 512" fill="none" xmlns="http://www.w3.org/2000/svg">
<path d="M467.572 436.7L339.472 332.4L306.872 365L411.172 493.2C426.172 511.7 453.872 513.1 470.672 496.3C487.472 479.4 486.072 451.7 467.572 436.7Z" fill="#B18B73"/>
<path d="M393.372 376.3L350.772 418.9L306.872 365L339.472 332.4L393.372 376.3Z" fill="#C4A896"/>
<path d="M482.472 467.9C482.472 478.1 478.572 488.4 470.672 496.3C453.872 513.1 426.172 511.7 411.172 493.3L405.372 486.1C420.672 495.4 441.172 493.7 454.572 480.2C462.472 472.3 466.272 462 466.272 451.8C466.272 444.6 464.372 437.4 460.572 431.1L467.672 436.9C477.472 444.7 482.472 456.2 482.472 467.9Z" fill="#9D6E50"/>
<path d="M349.971 323.8L376.171 350C379.171 353 379.171 358 376.171 361L335.471 401.7C332.471 404.7 327.471 404.7 324.471 401.7L298.271 375.5L349.971 323.8Z" fill="#FBB381"/>
<path d="M376.172 361L335.472 401.8C332.372 404.8 327.472 404.8 324.372 401.8L313.872 391.3C316.972 394.3 321.872 394.3 324.972 391.3L365.672 350.5C368.772 347.5 368.772 342.5 365.672 339.5L376.172 350C379.272 353 379.272 358 376.172 361Z" fill="#FA9957"/>
<path d="M332.62 358.15C393.853 296.917 393.853 197.637 332.62 136.404C271.386 75.17 172.107 75.17 110.873 136.404C49.6397 197.637 49.6397 296.917 110.873 358.15C172.107 419.384 271.386 419.384 332.62 358.15Z" fill="#7AD1F9"/>
<path d="M256.671 273.7C204.971 325.4 121.171 325.4 69.4715 273.7C68.4715 272.7 67.5715 271.7 66.6715 270.7C59.4715 223.2 74.2715 173 110.871 136.4C152.871 94.4002 212.671 81.3002 265.871 96.8002C308.171 148.9 304.971 225.4 256.671 273.7Z" fill="#A6E1FB"/>
<path d="M332.572 358.2C271.372 419.5 172.072 419.5 110.872 358.2C99.4717 346.7 90.1717 333.9 82.9717 320.4C144.472 369.3 234.272 365.3 291.172 308.4C340.972 258.6 350.272 183.8 319.172 124.7C323.772 128.3 328.272 132.3 332.472 136.6C393.872 197.7 393.872 296.9 332.572 358.2Z" fill="#4CC3F7"/>
<path d="M308.508 334.038C356.425 286.121 356.425 208.433 308.508 160.516C260.591 112.599 182.903 112.599 134.986 160.516C87.0689 208.433 87.0689 286.121 134.986 334.038C182.903 381.955 260.591 381.955 308.508 334.038Z" fill="#D3F0FD"/>
<path d="M107.372 115.6C106.372 192 220.772 295.6 220.772 295.6C220.772 295.6 335.072 195.1 336.072 118.6C336.872 56.2002 286.372 4.90024 223.172 4.00024C159.972 3.10024 108.172 53.1002 107.372 115.6Z" fill="#FB8A8A"/>
<path d="M230.772 70.3C230.072 119.5 182.572 178.7 148.772 214.6C126.072 183.1 106.972 147 107.372 115.6C108.172 57.4 153.172 10 210.472 4.5C223.572 23.2 231.072 45.9 230.772 70.3Z" fill="#FCB1B1"/>
<path d="M336.072 118.7C335.072 195.1 220.772 295.6 220.772 295.6C220.772 295.6 205.772 282 186.672 261C214.672 234.3 290.972 155.9 291.772 93.4998C292.172 60.0998 277.972 29.8998 254.972 8.7998C302.472 23.0998 336.772 67.0998 336.072 118.7Z" fill="#F96363"/>
<path d="M481.672 447.9C478.872 442.5 474.972 437.6 470.172 433.6L381.072 361.1C383.772 356.2 382.572 350.7 379.072 347.2L360.572 328.7C374.972 304.3 382.572 276.4 382.572 247.4C382.572 225.9 378.372 205.1 370.472 185.8C362.972 167.7 351.972 151 338.072 136.4C339.272 130.4 340.072 124.6 340.072 118.8C340.972 53.4 287.772 0 221.572 0C157.072 0 104.172 51.2 103.372 115.6C103.272 122.3 104.072 129.3 105.572 136.3C76.7717 166.4 60.9717 205.6 60.9717 247.3C60.9717 290.2 77.6717 330.6 108.072 361C161.072 414 241.772 421.9 303.072 386L321.672 404.6C325.172 408.1 330.672 409.2 335.572 406.6L408.072 495.7C424.572 515.9 454.972 517.6 473.572 499.1C486.872 485.7 490.272 465 481.672 447.9ZM221.672 8C283.572 8 332.872 58 332.072 118.7C331.172 186 237.972 274.6 220.772 290.3C203.772 274.2 110.472 183 111.372 115.7C112.172 55.9 161.272 8 221.672 8ZM320.472 181.7C333.372 201 340.272 223.6 340.272 247.3C340.272 279 327.972 308.8 305.572 331.2C259.272 377.5 184.072 377.5 137.772 331.2C97.1717 290.6 92.2717 227.7 122.972 181.6C154.872 240.9 214.572 295.4 217.972 298.6C218.772 299.3 219.672 299.6 220.672 299.6C221.572 299.6 222.572 299.3 223.272 298.6C226.872 295.6 288.172 241.1 320.472 181.7ZM113.672 355.3C84.7717 326.4 68.8717 288.1 68.8717 247.3C68.8717 209.4 82.6717 173.5 107.772 145.5C110.472 154.8 114.272 164.2 118.872 173.5C83.3717 223 87.7717 292.4 132.172 336.9C181.572 386.3 261.872 386.3 311.272 336.9C355.672 292.5 360.172 223.1 324.672 173.6C329.272 164.3 333.072 154.9 335.672 145.6C360.772 173.6 374.472 209.4 374.472 247.3C374.472 288.1 358.572 326.5 329.672 355.3C270.172 415 173.472 415.1 113.672 355.3ZM327.272 398.9L310.072 381.7C319.072 375.8 327.572 368.9 335.472 361C343.272 353.1 350.272 344.6 356.172 335.6L373.372 352.8C374.872 354.3 374.872 356.7 373.372 358.2L332.672 398.9C331.172 400.4 328.672 400.4 327.272 398.9ZM467.872 493.4C452.772 508.5 427.772 507.3 414.272 490.7L341.572 401.3L375.772 367.1L465.072 439.8C481.572 453.2 483.072 478.2 467.872 493.4Z" fill="#333333"/>
</svg>
