<svg width="518" height="422" viewBox="0 0 518 422" fill="none" xmlns="http://www.w3.org/2000/svg">
<path d="M517.28 49.842C498.222 58.3241 477.793 64.0191 456.317 66.6041C478.236 53.4368 495.079 32.5952 502.976 7.79539C482.507 19.953 459.742 28.7985 435.606 33.5646C416.266 12.8846 388.705 0 358.203 0C299.617 0 252.112 47.5802 252.112 106.308C252.112 114.629 253.079 122.747 254.892 130.543C166.731 126.1 88.6026 83.7702 36.262 19.4279C27.1154 35.1802 21.9176 53.4368 21.9176 72.9051C21.9176 109.782 40.6136 142.337 69.1008 161.441C51.6942 160.876 35.3352 156.069 21.0312 148.112C21.0312 148.557 21.0312 149.001 21.0312 149.445C21.0312 200.984 57.6173 243.919 106.09 253.734C97.2253 256.157 87.8371 257.45 78.1667 257.45C71.3169 257.45 64.6686 256.804 58.1814 255.511C71.7198 297.719 110.885 328.537 157.262 329.386C120.998 357.901 75.2656 374.865 25.544 374.865C16.9616 374.865 8.54035 374.381 0.280273 373.371C47.1814 403.583 102.947 421.153 162.863 421.153C357.962 421.153 464.658 259.146 464.658 118.668C464.658 114.063 464.537 109.418 464.376 104.894C485.086 89.9095 503.057 71.1683 517.28 49.842Z" fill="#F2AEC7"/>
</svg>
